<svg width="50" height="51" viewBox="0 0 50 51" fill="none" xmlns="http://www.w3.org/2000/svg">
<path d="M29.9991 1H20.0465C9.5531 1 1.03854 9.50659 1.02872 20L1.01879 30.6013C1.00896 41.0947 9.50759 49.6013 20.001 49.6013H29.9536C40.447 49.6013 48.9616 41.0947 48.9714 30.6013L48.9813 20C48.9911 9.50659 40.4925 1 29.9991 1Z" stroke="url(#paint0_linear_23_525)" stroke-width="2"/>
<mask id="mask0_23_525" style="mask-type:luminance" maskUnits="userSpaceOnUse" x="14" y="14" width="22" height="22">
<path d="M35.3795 14.9209H14.62V35.6804H35.3795V14.9209Z" fill="white"/>
</mask>
<g mask="url(#mask0_23_525)">
<path d="M30.149 34.1298H28.6488V32.6904H21.3506V34.1298H19.8504C19.5145 34.1298 19.2422 34.4021 19.2422 34.738C19.2422 35.0738 19.5145 35.3461 19.8504 35.3461H30.149C30.4849 35.3461 30.7572 35.0738 30.7572 34.738C30.7572 34.4021 30.4849 34.1298 30.149 34.1298Z" fill="#00CCA3"/>
<path d="M14.62 30.2574C14.62 30.9281 15.1656 31.4738 15.8364 31.4738H34.1631C34.8338 31.4738 35.3795 30.9281 35.3795 30.2574V29.041H14.62V30.2574Z" fill="#00CCA3"/>
<path d="M34.1631 15.2559H15.8364C15.1656 15.2559 14.62 15.8015 14.62 16.4722V27.8251H35.3795V16.4722C35.3795 15.8015 34.8338 15.2559 34.1631 15.2559ZM29.0551 20.7296C29.0551 21.0655 28.7828 21.3378 28.4469 21.3378H21.7155C21.3796 21.3378 21.1073 21.0655 21.1073 20.7296C21.1073 20.3937 21.3796 20.1214 21.7155 20.1214H28.4469C28.7828 20.1214 29.0551 20.3937 29.0551 20.7296ZM20.0937 17.6886H22.6481C22.984 17.6886 23.2563 17.9609 23.2563 18.2968C23.2563 18.6327 22.984 18.905 22.6481 18.905H20.0937C19.7578 18.905 19.4855 18.6327 19.4855 18.2968C19.4855 17.9609 19.7578 17.6886 20.0937 17.6886ZM17.661 26.2033C17.326 26.2033 17.0528 25.9301 17.0528 25.5952C17.0528 25.2602 17.326 24.987 17.661 24.987C17.996 24.987 18.2691 25.2602 18.2691 25.5952C18.2691 25.9301 17.996 26.2033 17.661 26.2033ZM17.661 23.7706C17.326 23.7706 17.0528 23.4974 17.0528 23.1624C17.0528 22.8274 17.326 22.5542 17.661 22.5542C17.996 22.5542 18.2691 22.8274 18.2691 23.1624C18.2691 23.4974 17.996 23.7706 17.661 23.7706ZM17.661 21.3378C17.326 21.3378 17.0528 21.0646 17.0528 20.7296C17.0528 20.3947 17.326 20.1215 17.661 20.1215C17.996 20.1215 18.2691 20.3947 18.2691 20.7296C18.2691 21.0646 17.996 21.3378 17.661 21.3378ZM17.661 18.905C17.326 18.905 17.0528 18.6318 17.0528 18.2968C17.0528 17.9619 17.326 17.6887 17.661 17.6887C17.996 17.6887 18.2691 17.9619 18.2691 18.2968C18.2691 18.6318 17.996 18.905 17.661 18.905ZM22.6481 26.2033H20.0937C19.7578 26.2033 19.4855 25.931 19.4855 25.5951C19.4855 25.2592 19.7578 24.9869 20.0937 24.9869H22.6481C22.984 24.9869 23.2563 25.2592 23.2563 25.5951C23.2563 25.931 22.984 26.2033 22.6481 26.2033ZM24.5537 23.7705H21.7155C21.3796 23.7705 21.1073 23.4982 21.1073 23.1624C21.1073 22.8265 21.3796 22.5542 21.7155 22.5542H24.5537C24.8896 22.5542 25.1619 22.8265 25.1619 23.1624C25.1619 23.4982 24.8896 23.7705 24.5537 23.7705ZM28.7502 23.7705H26.6486C26.3127 23.7705 26.0404 23.4982 26.0404 23.1624C26.0404 22.8265 26.3127 22.5542 26.6486 22.5542H28.7502C29.0861 22.5542 29.3584 22.8265 29.3584 23.1624C29.3584 23.4982 29.0862 23.7705 28.7502 23.7705ZM32.3386 23.7705H30.8789C30.543 23.7705 30.2707 23.4982 30.2707 23.1624C30.2707 22.8265 30.543 22.5542 30.8789 22.5542H32.3386C32.6744 22.5542 32.9467 22.8265 32.9467 23.1624C32.9467 23.4982 32.6744 23.7705 32.3386 23.7705ZM32.3386 21.3378H30.8789C30.543 21.3378 30.2707 21.0655 30.2707 20.7296C30.2707 20.3937 30.543 20.1214 30.8789 20.1214H32.3386C32.6744 20.1214 32.9467 20.3937 32.9467 20.7296C32.9467 21.0655 32.6744 21.3378 32.3386 21.3378Z" fill="#00CCA3"/>
</g>
<defs>
<linearGradient id="paint0_linear_23_525" x1="-2.72677" y1="3.72101e-07" x2="25.553" y2="50.2775" gradientUnits="userSpaceOnUse">
<stop stop-color="#00CCA3"/>
<stop offset="1" stop-color="white" stop-opacity="0"/>
</linearGradient>
</defs>
</svg>
