<svg width="29" height="20" viewBox="0 0 29 44" fill="none" xmlns="http://www.w3.org/2000/svg">
<g id="Group 1">
<path id="Union" fill-rule="evenodd" clip-rule="evenodd" d="M28.4918 14.2637C28.4918 22.1414 22.1137 28.5275 14.2459 28.5275C6.3781 28.5275 0 22.1414 0 14.2637C0 6.40618 6.34562 0.0325801 14.1857 0.000124506L14.1855 0H14.2459H28.6125L25.4643 5.47152C27.361 7.89423 28.4918 10.9468 28.4918 14.2637ZM22.9383 14.2638C22.9383 19.0705 19.0466 22.9671 14.2459 22.9671C9.44519 22.9671 5.55347 19.0705 5.55347 14.2638C5.55347 9.45708 9.44519 5.56049 14.2459 5.56049C19.0466 5.56049 22.9383 9.45708 22.9383 14.2638Z" fill="#00CCA3"/>
<path id="Subtract" fill-rule="evenodd" clip-rule="evenodd" d="M0.00195312 29.978C0.130878 37.7441 6.45871 44 14.2458 44C22.033 44 28.3608 37.7441 28.4897 29.978H22.9349C22.807 34.6729 18.9657 38.4395 14.2458 38.4395C9.52591 38.4395 5.68462 34.6729 5.55671 29.978H0.00195312Z" fill="#00CCA3"/>
<ellipse id="Ellipse 3" cx="14.2459" cy="14.2638" rx="3.50111" ry="3.50549" fill="#00CCA3"/>
</g>
</svg>
