<svg width="267" height="44" viewBox="0 0 267 44" fill="none" xmlns="http://www.w3.org/2000/svg">
<path fill-rule="evenodd" clip-rule="evenodd" d="M28.4918 14.2637C28.4918 22.1414 22.1137 28.5275 14.2459 28.5275C6.3781 28.5275 0 22.1414 0 14.2637C0 6.40618 6.34562 0.0325801 14.1857 0.000124506L14.1855 0H14.2459H28.6125L25.4643 5.47152C27.361 7.89423 28.4918 10.9468 28.4918 14.2637ZM22.9383 14.2638C22.9383 19.0705 19.0466 22.9671 14.2459 22.9671C9.44519 22.9671 5.55347 19.0705 5.55347 14.2638C5.55347 9.45708 9.44519 5.56049 14.2459 5.56049C19.0466 5.56049 22.9383 9.45708 22.9383 14.2638Z" fill="#00CCA3"/>
<path fill-rule="evenodd" clip-rule="evenodd" d="M0.00195312 29.978C0.130878 37.7441 6.45871 44 14.2458 44C22.033 44 28.3608 37.7441 28.4897 29.978H22.9349C22.807 34.6729 18.9657 38.4395 14.2458 38.4395C9.52591 38.4395 5.68462 34.6729 5.55671 29.978H0.00195312Z" fill="#00CCA3"/>
<ellipse cx="14.2457" cy="14.2638" rx="3.50111" ry="3.50549" fill="#00CCA3"/>
<ellipse cx="101.741" cy="22" rx="2.89747" ry="2.9011" fill="#00CCA3"/>
<ellipse cx="217.277" cy="22" rx="2.89747" ry="2.9011" fill="#00CCA3"/>
<path d="M56.347 33.0303C54.8781 33.0303 53.5099 32.7432 52.2422 32.169C50.9846 31.5948 49.883 30.8041 48.9373 29.7967C48.0016 28.7793 47.2722 27.6058 46.7491 26.2761C46.2259 24.9465 45.9644 23.5312 45.9644 22.0303C45.9644 20.4185 46.2511 18.9478 46.8245 17.6182C47.398 16.2885 48.1777 15.1402 49.1636 14.1731C50.1496 13.196 51.2663 12.4456 52.5138 11.9217C53.7714 11.3879 55.0793 11.1209 56.4375 11.1209C57.9265 11.1209 59.3853 11.4684 60.8139 12.1635C62.2425 12.8586 63.5202 13.9616 64.647 15.4726L60.9346 17.4671C60.2907 16.7217 59.5714 16.1676 58.7766 15.805C57.9919 15.4423 57.1921 15.261 56.3771 15.261C55.5622 15.261 54.7775 15.4272 54.0229 15.7597C53.2785 16.0921 52.6145 16.5655 52.0309 17.18C51.4474 17.7945 50.9846 18.5197 50.6426 19.3558C50.3005 20.1919 50.1295 21.1136 50.1295 22.1209C50.1295 23.0577 50.2904 23.9341 50.6124 24.75C50.9444 25.566 51.3971 26.2812 51.9706 26.8956C52.544 27.5101 53.208 27.9936 53.9626 28.3462C54.7272 28.6887 55.5421 28.8599 56.4073 28.8599C56.9405 28.8599 57.4637 28.7844 57.9768 28.6333C58.4999 28.4721 58.9979 28.2404 59.4708 27.9382C59.9436 27.636 60.3763 27.2583 60.7686 26.805C61.171 26.3517 61.5232 25.8279 61.825 25.2336H58.5502V21.6072H66.7296C66.7899 23.1685 66.5636 24.6392 66.0505 26.0193C65.5374 27.3993 64.8029 28.6182 63.8472 29.6759C62.8914 30.7235 61.7747 31.5445 60.497 32.1388C59.2193 32.7331 57.8359 33.0303 56.347 33.0303Z" fill="#00CCA3"/>
<path d="M82.8116 11.4836H86.9767V32.6374H82.8116V23.3902H74.7832V32.6374H70.6181V11.4836H74.7832V19.2198H82.8116V11.4836Z" fill="#00CCA3"/>
<path d="M101.618 33.0303C100.19 33.0303 98.8466 32.7482 97.589 32.1841C96.3314 31.6099 95.2247 30.8192 94.269 29.8119C93.3132 28.8045 92.5637 27.6411 92.0204 26.3215C91.4771 24.9918 91.2055 23.5715 91.2055 22.0605C91.2055 20.5495 91.4771 19.1342 92.0204 17.8146C92.5637 16.4849 93.3132 15.3164 94.269 14.3091C95.2247 13.3018 96.3314 12.5161 97.589 11.952C98.8466 11.3778 100.19 11.0907 101.618 11.0907C103.057 11.0907 104.405 11.3778 105.663 11.952C106.92 12.5161 108.027 13.3018 108.983 14.3091C109.938 15.3164 110.683 16.4849 111.216 17.8146C111.759 19.1342 112.031 20.5495 112.031 22.0605C112.031 23.5715 111.759 24.9918 111.216 26.3215C110.683 27.6411 109.938 28.8045 108.983 29.8119C108.027 30.8192 106.92 31.6099 105.663 32.1841C104.405 32.7482 103.057 33.0303 101.618 33.0303ZM101.618 28.8599C102.473 28.8599 103.278 28.6837 104.033 28.3311C104.787 27.9684 105.451 27.4749 106.025 26.8503C106.598 26.2258 107.046 25.5055 107.368 24.6896C107.7 23.8737 107.866 22.9973 107.866 22.0605C107.866 21.1237 107.7 20.2473 107.368 19.4314C107.046 18.6054 106.598 17.8851 106.025 17.2706C105.451 16.6461 104.787 16.1576 104.033 15.805C103.278 15.4423 102.473 15.261 101.618 15.261C100.763 15.261 99.9583 15.4423 99.2037 15.805C98.4492 16.1576 97.7852 16.6461 97.2117 17.2706C96.6382 17.8952 96.1855 18.6154 95.8535 19.4314C95.5316 20.2473 95.3706 21.1237 95.3706 22.0605C95.3706 22.9973 95.5316 23.8787 95.8535 24.7047C96.1855 25.5206 96.6382 26.2409 97.2117 26.8654C97.7852 27.4799 98.4492 27.9684 99.2037 28.3311C99.9583 28.6837 100.763 28.8599 101.618 28.8599Z" fill="#00CCA3"/>
<path d="M123.953 33.0303C122.766 33.0303 121.629 32.8439 120.543 32.4712C119.466 32.0985 118.52 31.5596 117.706 30.8544C116.901 30.1493 116.322 29.3132 115.97 28.3462L119.879 26.8956C119.999 27.2381 120.251 27.5605 120.633 27.8627C121.015 28.1548 121.493 28.3966 122.067 28.588C122.64 28.7693 123.269 28.8599 123.953 28.8599C124.607 28.8599 125.221 28.7642 125.794 28.5728C126.378 28.3714 126.846 28.0944 127.198 27.7418C127.56 27.3892 127.741 26.9762 127.741 26.5028C127.741 26.0293 127.555 25.6365 127.183 25.3242C126.81 25.0119 126.333 24.7652 125.749 24.5838C125.165 24.3924 124.567 24.2464 123.953 24.1456C122.434 23.924 121.071 23.5664 119.864 23.0728C118.666 22.5692 117.721 21.8792 117.026 21.0028C116.332 20.1163 115.985 18.9932 115.985 17.6333C115.985 16.3238 116.352 15.1804 117.087 14.2033C117.831 13.2262 118.807 12.4657 120.014 11.9217C121.232 11.3778 122.545 11.1058 123.953 11.1058C125.12 11.1058 126.247 11.2922 127.334 11.6649C128.42 12.0376 129.366 12.5765 130.171 13.2816C130.986 13.9868 131.569 14.8329 131.921 15.8201L128.013 17.2404C127.892 16.8979 127.64 16.5806 127.258 16.2885C126.876 15.9964 126.398 15.7597 125.824 15.5783C125.251 15.397 124.627 15.3064 123.953 15.3064C123.309 15.2963 122.696 15.392 122.112 15.5934C121.539 15.7949 121.066 16.0719 120.694 16.4245C120.331 16.7771 120.15 17.18 120.15 17.6333C120.15 18.2276 120.321 18.6759 120.663 18.9781C121.015 19.2803 121.478 19.4968 122.052 19.6278C122.625 19.7587 123.259 19.8746 123.953 19.9753C125.382 20.1869 126.7 20.5646 127.907 21.1086C129.114 21.6424 130.08 22.3576 130.804 23.2542C131.539 24.1406 131.906 25.2235 131.906 26.5028C131.906 27.8123 131.539 28.9556 130.804 29.9327C130.07 30.9098 129.099 31.6704 127.892 32.2143C126.685 32.7583 125.372 33.0303 123.953 33.0303Z" fill="#00CCA3"/>
<path d="M151.838 11.4836V15.6539H145.621V32.6374H141.456V15.6539H135.238V11.4836H151.838Z" fill="#00CCA3"/>
<path d="M174.297 33.0303C172.828 33.0303 171.46 32.7432 170.192 32.169C168.935 31.5948 167.833 30.8041 166.888 29.7967C165.952 28.7793 165.222 27.6058 164.699 26.2761C164.176 24.9465 163.915 23.5312 163.915 22.0303C163.915 20.4185 164.201 18.9478 164.775 17.6182C165.348 16.2885 166.128 15.1402 167.114 14.1731C168.1 13.196 169.217 12.4456 170.464 11.9217C171.722 11.3879 173.03 11.1209 174.388 11.1209C175.877 11.1209 177.335 11.4684 178.764 12.1635C180.193 12.8586 181.47 13.9616 182.597 15.4726L178.885 17.4671C178.241 16.7217 177.522 16.1676 176.727 15.805C175.942 15.4423 175.142 15.261 174.327 15.261C173.512 15.261 172.728 15.4272 171.973 15.7597C171.229 16.0921 170.565 16.5655 169.981 17.18C169.398 17.7945 168.935 18.5197 168.593 19.3558C168.251 20.1919 168.08 21.1136 168.08 22.1209C168.08 23.0577 168.241 23.9341 168.563 24.75C168.895 25.566 169.347 26.2812 169.921 26.8956C170.494 27.5101 171.158 27.9936 171.913 28.3462C172.677 28.6887 173.492 28.8599 174.358 28.8599C174.891 28.8599 175.414 28.7844 175.927 28.6333C176.45 28.4721 176.948 28.2404 177.421 27.9382C177.894 27.636 178.326 27.2583 178.719 26.805C179.121 26.3517 179.473 25.8279 179.775 25.2336H176.5V21.6072H184.68C184.74 23.1685 184.514 24.6392 184.001 26.0193C183.488 27.3993 182.753 28.6182 181.797 29.6759C180.842 30.7235 179.725 31.5445 178.447 32.1388C177.169 32.7331 175.786 33.0303 174.297 33.0303Z" fill="#00CCA3"/>
<path d="M188.568 32.6374V11.4836H196.959C198.106 11.4836 199.142 11.7757 200.068 12.3599C201.003 12.9341 201.743 13.7097 202.286 14.6869C202.839 15.6539 203.116 16.7267 203.116 17.9053C203.116 18.832 202.955 19.6933 202.633 20.4891C202.311 21.2748 201.858 21.9648 201.275 22.5591C200.691 23.1534 200.012 23.6168 199.238 23.9492L204.263 32.6374H199.464L194.65 24.327H192.733V32.6374H188.568ZM192.733 20.1566H196.461C196.914 20.1566 197.326 20.0458 197.698 19.8242C198.081 19.5925 198.382 19.2853 198.604 18.9025C198.835 18.5097 198.951 18.0765 198.951 17.6031C198.951 17.1397 198.835 16.7166 198.604 16.3338C198.382 15.941 198.081 15.6287 197.698 15.397C197.326 15.1653 196.914 15.0495 196.461 15.0495H192.733V20.1566Z" fill="#00CCA3"/>
<path d="M217.24 33.0303C215.811 33.0303 214.468 32.7482 213.211 32.1841C211.953 31.6099 210.846 30.8192 209.891 29.8119C208.935 28.8045 208.185 27.6411 207.642 26.3215C207.099 24.9918 206.827 23.5715 206.827 22.0605C206.827 20.5495 207.099 19.1342 207.642 17.8146C208.185 16.4849 208.935 15.3164 209.891 14.3091C210.846 13.3018 211.953 12.5161 213.211 11.952C214.468 11.3778 215.811 11.0907 217.24 11.0907C218.679 11.0907 220.027 11.3778 221.284 11.952C222.542 12.5161 223.649 13.3018 224.604 14.3091C225.56 15.3164 226.305 16.4849 226.838 17.8146C227.381 19.1342 227.653 20.5495 227.653 22.0605C227.653 23.5715 227.381 24.9918 226.838 26.3215C226.305 27.6411 225.56 28.8045 224.604 29.8119C223.649 30.8192 222.542 31.6099 221.284 32.1841C220.027 32.7482 218.679 33.0303 217.24 33.0303ZM217.24 28.8599C218.095 28.8599 218.9 28.6837 219.655 28.3311C220.409 27.9684 221.073 27.4749 221.647 26.8503C222.22 26.2258 222.668 25.5055 222.99 24.6896C223.322 23.8737 223.488 22.9973 223.488 22.0605C223.488 21.1237 223.322 20.2473 222.99 19.4314C222.668 18.6054 222.22 17.8851 221.647 17.2706C221.073 16.6461 220.409 16.1576 219.655 15.805C218.9 15.4423 218.095 15.261 217.24 15.261C216.385 15.261 215.58 15.4423 214.825 15.805C214.071 16.1576 213.407 16.6461 212.833 17.2706C212.26 17.8952 211.807 18.6154 211.475 19.4314C211.153 20.2473 210.992 21.1237 210.992 22.0605C210.992 22.9973 211.153 23.8787 211.475 24.7047C211.807 25.5206 212.26 26.2409 212.833 26.8654C213.407 27.4799 214.071 27.9684 214.825 28.3311C215.58 28.6837 216.385 28.8599 217.24 28.8599Z" fill="#00CCA3"/>
<path d="M240.111 33.0303C238.421 33.0303 236.932 32.6173 235.644 31.7913C234.366 30.9652 233.365 29.8572 232.641 28.4671C231.927 27.0669 231.569 25.5156 231.569 23.8132V11.4836H235.734V23.8132C235.734 24.7299 235.906 25.571 236.248 26.3366C236.59 27.1021 237.088 27.7166 237.742 28.18C238.396 28.6333 239.185 28.8599 240.111 28.8599C241.047 28.8599 241.836 28.6333 242.48 28.18C243.134 27.7267 243.627 27.1173 243.959 26.3517C244.291 25.5861 244.457 24.74 244.457 23.8132V11.4836H248.622V23.8132C248.622 25.0925 248.416 26.2913 248.003 27.4094C247.601 28.5174 247.023 29.4945 246.268 30.3407C245.513 31.1869 244.613 31.8467 243.567 32.3201C242.53 32.7935 241.379 33.0303 240.111 33.0303Z" fill="#00CCA3"/>
<path d="M253.026 32.6374V11.4836H260.813C261.97 11.4836 263.011 11.7757 263.936 12.3599C264.872 12.9442 265.617 13.7249 266.17 14.702C266.723 15.669 267 16.7368 267 17.9053C267 19.0939 266.718 20.1768 266.155 21.1539C265.591 22.1209 264.837 22.8915 263.891 23.4657C262.956 24.0399 261.929 24.327 260.813 24.327H257.191V32.6374H253.026ZM257.191 20.1566H260.345C260.808 20.1566 261.225 20.0458 261.597 19.8242C261.97 19.5925 262.266 19.2853 262.488 18.9025C262.719 18.5097 262.835 18.0765 262.835 17.6031C262.835 17.1397 262.719 16.7166 262.488 16.3338C262.266 15.941 261.97 15.6287 261.597 15.397C261.225 15.1653 260.808 15.0495 260.345 15.0495H257.191V20.1566Z" fill="#00CCA3"/>
</svg>
