<svg width="629" height="578" viewBox="0 0 629 578" fill="none" xmlns="http://www.w3.org/2000/svg">
<path d="M296.635 204.865C299.259 197.306 297.335 189.81 292.339 188.122C287.342 186.434 281.164 191.194 278.54 198.753C275.916 206.312 277.84 213.808 282.836 215.496C287.833 217.184 294.011 212.425 296.635 204.865Z" fill="#00AA88"/>
<path d="M278.842 198.733C282.4 197.151 283.298 191.518 280.845 186.152C278.393 180.786 273.521 177.719 269.962 179.302C266.403 180.885 265.506 186.517 267.958 191.883C270.41 197.249 275.283 200.316 278.842 198.733Z" fill="#00AA88"/>
<path d="M272.112 211.204H291.148C292.822 211.204 294.428 211.86 295.612 213.028C296.795 214.196 297.461 215.78 297.461 217.431V225.975C297.461 227.627 296.795 229.211 295.612 230.379C294.428 231.547 292.822 232.203 291.148 232.203H272.112V211.204Z" fill="#333333"/>
<g opacity="0.05">
<path d="M272.112 211.204H291.148C292.822 211.204 294.428 211.86 295.612 213.028C296.795 214.196 297.461 215.78 297.461 217.431V225.975C297.461 227.627 296.795 229.211 295.612 230.379C294.428 231.547 292.822 232.203 291.148 232.203H272.112V211.204Z" fill="#00CCA3"/>
</g>
<g opacity="0.05">
<path d="M295.029 196.706H295.005C294.967 196.702 294.93 196.689 294.898 196.668C294.866 196.647 294.84 196.618 294.822 196.585C294.751 196.417 294.746 196.229 294.809 196.058C294.918 195.604 294.89 195.128 294.73 194.689C294.719 194.661 294.714 194.631 294.715 194.6C294.716 194.57 294.723 194.54 294.736 194.512C294.749 194.485 294.767 194.46 294.79 194.439C294.812 194.418 294.839 194.402 294.868 194.391C294.896 194.381 294.927 194.376 294.958 194.377C294.989 194.378 295.019 194.385 295.047 194.398C295.075 194.41 295.101 194.428 295.122 194.45C295.143 194.473 295.159 194.499 295.17 194.527C295.324 194.946 295.377 195.395 295.324 195.837C295.597 195.592 295.901 195.385 296.23 195.22C296.285 195.194 296.348 195.191 296.406 195.211C296.463 195.231 296.511 195.272 296.538 195.326C296.566 195.379 296.571 195.441 296.553 195.499C296.534 195.556 296.494 195.605 296.441 195.633C295.966 195.877 295.547 196.214 295.21 196.624C295.188 196.65 295.16 196.671 295.129 196.685C295.097 196.699 295.063 196.706 295.029 196.706Z" fill="#292A2E"/>
<path d="M287.906 191.191C287.876 191.191 287.846 191.185 287.817 191.173C287.655 191.088 287.531 190.946 287.47 190.774C287.271 190.357 286.951 190.009 286.549 189.774C286.495 189.743 286.456 189.693 286.439 189.633C286.423 189.574 286.432 189.51 286.463 189.457C286.494 189.404 286.545 189.365 286.606 189.349C286.666 189.333 286.73 189.341 286.784 189.372C287.167 189.594 287.491 189.904 287.728 190.275C287.784 189.91 287.887 189.554 288.035 189.215C288.061 189.161 288.108 189.119 288.165 189.097C288.222 189.076 288.285 189.078 288.341 189.102C288.397 189.126 288.441 189.171 288.465 189.227C288.488 189.282 288.488 189.345 288.465 189.401C288.253 189.894 288.143 190.425 288.142 190.961C288.142 191.022 288.117 191.081 288.073 191.125C288.029 191.168 287.97 191.193 287.907 191.193L287.906 191.191Z" fill="#292A2E"/>
<path d="M281.907 198.662C281.877 198.662 281.846 198.656 281.818 198.645C281.656 198.561 281.533 198.419 281.473 198.249C281.274 197.831 280.952 197.481 280.549 197.245C280.495 197.214 280.456 197.164 280.44 197.104C280.424 197.045 280.432 196.981 280.463 196.928C280.494 196.875 280.546 196.836 280.606 196.82C280.666 196.804 280.73 196.812 280.784 196.843C281.168 197.066 281.491 197.375 281.729 197.747C281.784 197.382 281.887 197.025 282.035 196.686C282.061 196.632 282.108 196.59 282.165 196.568C282.222 196.547 282.285 196.549 282.341 196.573C282.397 196.597 282.441 196.642 282.464 196.697C282.488 196.753 282.488 196.816 282.465 196.871C282.253 197.365 282.144 197.895 282.143 198.431C282.143 198.493 282.118 198.552 282.074 198.595C282.03 198.639 281.97 198.663 281.908 198.663L281.907 198.662Z" fill="#292A2E"/>
<path d="M288.279 197.533C288.248 197.533 288.218 197.527 288.19 197.515C288.027 197.431 287.903 197.289 287.843 197.117C287.644 196.7 287.323 196.351 286.921 196.115C286.895 196.1 286.871 196.08 286.852 196.056C286.834 196.032 286.82 196.004 286.812 195.975C286.804 195.945 286.802 195.915 286.806 195.884C286.81 195.854 286.82 195.825 286.835 195.799C286.851 195.772 286.871 195.749 286.896 195.731C286.92 195.712 286.948 195.699 286.978 195.691C287.008 195.683 287.039 195.681 287.069 195.685C287.1 195.689 287.129 195.699 287.156 195.714C287.539 195.937 287.862 196.246 288.099 196.617C288.154 196.252 288.257 195.896 288.406 195.557C288.418 195.528 288.435 195.502 288.457 195.48C288.479 195.458 288.506 195.441 288.535 195.429C288.564 195.417 288.595 195.411 288.626 195.412C288.658 195.412 288.689 195.419 288.718 195.431C288.747 195.443 288.773 195.461 288.794 195.484C288.816 195.506 288.833 195.533 288.844 195.562C288.855 195.591 288.86 195.622 288.858 195.653C288.857 195.684 288.85 195.714 288.836 195.742C288.624 196.236 288.514 196.767 288.513 197.303C288.513 197.364 288.489 197.423 288.445 197.467C288.401 197.51 288.341 197.534 288.279 197.534V197.533Z" fill="#292A2E"/>
<path d="M292.333 204.063C292.275 204.063 292.219 204.043 292.176 204.005C292.133 203.968 292.105 203.916 292.098 203.859C292.093 203.678 292.156 203.502 292.276 203.365C292.543 202.981 292.69 202.528 292.699 202.062C292.699 202.001 292.723 201.942 292.767 201.899C292.811 201.855 292.871 201.831 292.933 201.831C292.996 201.831 293.055 201.855 293.099 201.899C293.144 201.942 293.168 202.001 293.168 202.062C293.161 202.51 293.046 202.95 292.834 203.345C293.179 203.217 293.54 203.136 293.907 203.104C293.938 203.102 293.969 203.105 293.998 203.115C294.028 203.124 294.055 203.139 294.079 203.159C294.102 203.178 294.122 203.203 294.136 203.23C294.15 203.257 294.159 203.286 294.161 203.317C294.164 203.347 294.16 203.378 294.151 203.407C294.141 203.436 294.126 203.463 294.106 203.486C294.086 203.51 294.062 203.529 294.034 203.543C294.007 203.557 293.977 203.565 293.946 203.568C293.418 203.617 292.906 203.775 292.443 204.031C292.41 204.051 292.372 204.062 292.333 204.063Z" fill="#292A2E"/>
<path d="M282.444 208.088C282.412 208.088 282.38 208.081 282.351 208.068C282.191 207.977 282.072 207.831 282.017 207.658C281.83 207.235 281.52 206.877 281.127 206.629C281.1 206.613 281.077 206.592 281.058 206.568C281.04 206.543 281.027 206.515 281.019 206.485C281.012 206.455 281.01 206.424 281.015 206.394C281.02 206.364 281.031 206.335 281.047 206.309C281.064 206.283 281.085 206.26 281.11 206.242C281.136 206.224 281.164 206.211 281.195 206.205C281.225 206.198 281.256 206.197 281.287 206.202C281.318 206.207 281.347 206.218 281.373 206.235C281.749 206.469 282.063 206.789 282.289 207.167C282.355 206.804 282.469 206.451 282.628 206.117C282.657 206.066 282.705 206.028 282.761 206.011C282.818 205.993 282.879 205.997 282.933 206.023C282.986 206.048 283.028 206.092 283.05 206.147C283.072 206.201 283.072 206.262 283.05 206.316C282.823 206.803 282.697 207.33 282.68 207.865C282.678 207.903 282.667 207.94 282.648 207.973C282.629 208.006 282.602 208.033 282.569 208.053C282.531 208.076 282.488 208.088 282.444 208.088Z" fill="#292A2E"/>
<path d="M288.327 210.238C288.319 210.239 288.311 210.239 288.303 210.238C288.264 210.235 288.227 210.221 288.195 210.2C288.163 210.179 288.137 210.15 288.119 210.117C288.049 209.949 288.044 209.763 288.105 209.592C288.215 209.137 288.187 208.661 288.027 208.222C288.005 208.164 288.007 208.1 288.033 208.044C288.059 207.988 288.106 207.945 288.164 207.923C288.222 207.902 288.287 207.904 288.344 207.929C288.4 207.954 288.445 208.001 288.467 208.059C288.621 208.478 288.674 208.926 288.622 209.369C288.894 209.124 289.198 208.916 289.527 208.751C289.582 208.724 289.646 208.72 289.705 208.739C289.764 208.758 289.813 208.8 289.84 208.855C289.868 208.909 289.873 208.972 289.854 209.031C289.835 209.089 289.793 209.137 289.738 209.165C289.263 209.408 288.844 209.746 288.507 210.156C288.485 210.182 288.458 210.203 288.426 210.217C288.395 210.231 288.361 210.239 288.327 210.238Z" fill="#292A2E"/>
</g>
<g opacity="0.05">
<path d="M277.777 188.134H277.753C277.715 188.13 277.678 188.117 277.646 188.096C277.614 188.074 277.588 188.046 277.57 188.012C277.499 187.844 277.494 187.656 277.557 187.485C277.666 187.031 277.638 186.555 277.478 186.117C277.456 186.059 277.458 185.995 277.484 185.94C277.51 185.884 277.557 185.84 277.616 185.819C277.674 185.797 277.739 185.799 277.795 185.825C277.852 185.85 277.896 185.897 277.918 185.955C278.072 186.373 278.125 186.822 278.073 187.264C278.345 187.02 278.649 186.812 278.978 186.647C279.033 186.623 279.096 186.62 279.153 186.64C279.21 186.66 279.257 186.701 279.284 186.754C279.311 186.807 279.317 186.869 279.299 186.926C279.281 186.983 279.242 187.031 279.189 187.06C278.714 187.304 278.295 187.641 277.958 188.051C277.936 188.077 277.908 188.098 277.877 188.112C277.846 188.127 277.812 188.134 277.777 188.134Z" fill="#292A2E"/>
<path d="M272.842 182.95C272.812 182.95 272.782 182.944 272.753 182.933C272.591 182.848 272.467 182.706 272.407 182.535C272.208 182.118 271.887 181.769 271.485 181.533C271.431 181.503 271.391 181.452 271.375 181.392C271.359 181.333 271.367 181.27 271.398 181.216C271.429 181.163 271.481 181.124 271.541 181.108C271.601 181.092 271.666 181.1 271.72 181.131C272.102 181.354 272.426 181.664 272.663 182.035C272.718 181.67 272.821 181.313 272.969 180.975C272.995 180.92 273.042 180.878 273.099 180.857C273.156 180.836 273.22 180.837 273.275 180.861C273.331 180.885 273.376 180.93 273.399 180.986C273.422 181.042 273.422 181.104 273.399 181.16C273.187 181.653 273.078 182.184 273.077 182.72C273.077 182.758 273.067 182.795 273.049 182.828C273.03 182.861 273.004 182.89 272.972 182.911C272.934 182.936 272.889 182.95 272.842 182.95Z" fill="#292A2E"/>
<path d="M272.047 188.464C272.017 188.464 271.986 188.458 271.958 188.446C271.795 188.361 271.671 188.219 271.611 188.047C271.412 187.631 271.092 187.283 270.69 187.047C270.636 187.016 270.597 186.966 270.581 186.906C270.565 186.847 270.573 186.784 270.604 186.731C270.635 186.677 270.687 186.638 270.747 186.622C270.807 186.606 270.871 186.615 270.925 186.646C271.308 186.868 271.632 187.178 271.869 187.548C271.925 187.184 272.028 186.828 272.176 186.489C272.202 186.435 272.249 186.392 272.306 186.371C272.363 186.35 272.426 186.352 272.482 186.376C272.538 186.4 272.582 186.445 272.605 186.5C272.628 186.556 272.629 186.618 272.606 186.674C272.394 187.168 272.284 187.698 272.283 188.235C272.282 188.296 272.257 188.354 272.213 188.397C272.169 188.44 272.11 188.464 272.048 188.464H272.047Z" fill="#292A2E"/>
<path d="M276.102 194.996C276.044 194.996 275.988 194.976 275.945 194.938C275.901 194.9 275.874 194.848 275.867 194.791C275.863 194.611 275.926 194.435 276.045 194.298C276.312 193.913 276.459 193.461 276.468 192.995C276.468 192.933 276.492 192.874 276.536 192.831C276.58 192.788 276.64 192.763 276.702 192.763C276.765 192.763 276.824 192.788 276.868 192.831C276.912 192.874 276.937 192.933 276.937 192.995C276.929 193.442 276.815 193.882 276.603 194.278C276.948 194.15 277.309 194.068 277.676 194.036C277.738 194.033 277.798 194.053 277.845 194.093C277.892 194.132 277.922 194.188 277.929 194.249C277.934 194.31 277.914 194.37 277.874 194.417C277.834 194.464 277.776 194.493 277.714 194.498C277.186 194.548 276.674 194.705 276.212 194.962C276.179 194.982 276.141 194.994 276.102 194.996Z" fill="#292A2E"/>
<path d="M271.19 193.56C271.024 193.545 270.868 193.477 270.745 193.366C270.378 193.089 269.934 192.93 269.472 192.909C269.41 192.907 269.351 192.881 269.308 192.836C269.266 192.791 269.243 192.732 269.245 192.67C269.245 192.64 269.252 192.61 269.264 192.582C269.277 192.554 269.295 192.528 269.318 192.508C269.34 192.487 269.367 192.47 269.396 192.46C269.425 192.449 269.456 192.444 269.487 192.446C269.929 192.464 270.36 192.588 270.743 192.808C270.623 192.455 270.551 192.087 270.527 191.715C270.524 191.654 270.545 191.594 270.587 191.548C270.628 191.502 270.686 191.475 270.749 191.471C270.78 191.468 270.811 191.471 270.841 191.48C270.871 191.49 270.898 191.505 270.921 191.526C270.945 191.546 270.963 191.571 270.976 191.6C270.989 191.628 270.996 191.658 270.996 191.689C271.033 192.224 271.178 192.745 271.423 193.223C271.44 193.257 271.449 193.294 271.448 193.331C271.447 193.369 271.437 193.406 271.419 193.438C271.401 193.471 271.375 193.499 271.343 193.52C271.311 193.54 271.275 193.553 271.237 193.557C271.222 193.559 271.206 193.56 271.19 193.56Z" fill="#292A2E"/>
</g>
<path d="M207.469 231.732H259.839V216.906H207.469V231.732Z" fill="#333333"/>
<path opacity="0.05" d="M207.469 231.732H259.839V216.906H207.469V231.732Z" fill="#00CCA3"/>
<path d="M214.502 231.732H221.364V216.906H214.502V231.732Z" fill="#0F0F0F"/>
<path d="M224.617 228.51H253.149V219.724H224.617V228.51Z" fill="#0F0F0F"/>
<path d="M194.984 216.92H246.634V202.095H194.984V216.92Z" fill="#333333"/>
<path opacity="0.05" d="M232.931 216.92H239.699V202.095H232.931V216.92Z" fill="#00CCA3"/>
<path d="M201.583 213.698H229.723V204.913H201.583V213.698Z" fill="#0F0F0F"/>
<path d="M169.764 231.732L203.787 192.457L192.362 182.825L158.339 222.1L169.764 231.732Z" fill="#333333"/>
<path opacity="0.05" d="M174.332 226.457L178.791 221.311L167.366 211.679L162.908 216.825L174.332 226.457Z" fill="#292A2E"/>
<path opacity="0.05" d="M178.422 216.78L196.959 195.382L190.189 189.675L171.652 211.073L178.422 216.78Z" fill="#00CCA3"/>
<path d="M302.916 231.461H151.706V237.323H302.916V231.461Z" fill="#6A6A6A"/>
<path d="M562.745 2.21997H318.589C313.377 2.21997 309.152 6.38833 309.152 11.5303V295.117C309.152 300.259 313.377 304.427 318.589 304.427H562.745C567.957 304.427 572.182 300.259 572.182 295.117V11.5303C572.182 6.38833 567.957 2.21997 562.745 2.21997Z" fill="#0F0F0F"/>
<path d="M562.742 303.352H318.586C315.93 303.349 313.384 302.307 311.506 300.454C309.628 298.602 308.571 296.09 308.568 293.469V9.88288C308.571 7.26271 309.628 4.75072 311.506 2.89798C313.384 1.04523 315.93 0.00303086 318.586 0H562.742C565.398 0.00303086 567.944 1.04523 569.822 2.89798C571.7 4.75072 572.757 7.26271 572.76 9.88288V293.469C572.757 296.09 571.7 298.602 569.822 300.454C567.944 302.307 565.398 303.349 562.742 303.352ZM318.586 1.14518C316.238 1.1479 313.987 2.06936 312.326 3.7074C310.666 5.34545 309.732 7.56633 309.729 9.88288V293.469C309.732 295.786 310.666 298.007 312.326 299.645C313.987 301.283 316.238 302.204 318.586 302.207H562.742C565.09 302.204 567.341 301.283 569.002 299.645C570.662 298.007 571.596 295.786 571.599 293.469V9.88288C571.596 7.56633 570.662 5.34545 569.002 3.7074C567.341 2.06936 565.09 1.1479 562.742 1.14518H318.586Z" fill="#007A62"/>
<path d="M468.307 47.9418C471.432 47.9418 473.965 45.4431 473.965 42.3608C473.965 39.2785 471.432 36.7798 468.307 36.7798C465.183 36.7798 462.65 39.2785 462.65 42.3608C462.65 45.4431 465.183 47.9418 468.307 47.9418Z" fill="#00CCA3"/>
<path d="M468.307 47.9418C471.432 47.9418 473.965 45.4431 473.965 42.3608C473.965 39.2785 471.432 36.7798 468.307 36.7798C465.183 36.7798 462.65 39.2785 462.65 42.3608C462.65 45.4431 465.183 47.9418 468.307 47.9418Z" fill="#00CCA3"/>
<path d="M468.307 76.3913C471.432 76.3913 473.965 73.8926 473.965 70.8103C473.965 67.728 471.432 65.2292 468.307 65.2292C465.183 65.2292 462.65 67.728 462.65 70.8103C462.65 73.8926 465.183 76.3913 468.307 76.3913Z" fill="#292A2E"/>
<path opacity="0.5" d="M468.307 104.84C471.432 104.84 473.965 102.341 473.965 99.259C473.965 96.1767 471.432 93.678 468.307 93.678C465.183 93.678 462.65 96.1767 462.65 99.259C462.65 102.341 465.183 104.84 468.307 104.84Z" fill="#00CCA3"/>
<path opacity="0.2" d="M468.307 133.288C471.432 133.288 473.965 130.79 473.965 127.707C473.965 124.625 471.432 122.126 468.307 122.126C465.183 122.126 462.65 124.625 462.65 127.707C462.65 130.79 465.183 133.288 468.307 133.288Z" fill="#00CCA3"/>
<path d="M356.01 85.0352C356.011 91.8378 358.151 98.4725 362.134 104.026C366.117 109.579 371.747 113.777 378.249 116.043L369.105 138.039C356.528 133.363 346.012 124.482 339.391 112.944C332.769 101.406 330.461 87.9412 332.868 74.8965C335.276 61.8518 342.246 50.0539 352.566 41.5583C362.885 33.0627 375.898 28.4079 389.339 28.405V52.1566C380.499 52.1566 372.022 55.6205 365.772 61.7865C359.521 67.9524 356.01 76.3152 356.01 85.0352Z" fill="#292A2E"/>
<path d="M446.743 85.0347H422.667C422.667 76.3148 419.155 67.952 412.905 61.786C406.655 55.6201 398.177 52.1561 389.338 52.1561V28.4045C404.563 28.4055 419.163 34.3721 429.929 44.9921C440.694 55.6122 446.742 70.0157 446.743 85.0347Z" fill="#00CCA3"/>
<path opacity="0.5" d="M446.745 85.0347C446.744 97.8665 442.327 110.318 434.217 120.35C426.107 130.383 414.785 137.402 402.104 140.26L398.025 116.784C405.098 114.898 411.344 110.767 415.798 105.029C420.253 99.2904 422.667 92.2645 422.669 85.037L446.745 85.0347Z" fill="#00CCA3"/>
<path opacity="0.2" d="M402.103 140.259C391.12 142.713 379.649 141.942 369.105 138.04L378.249 116.042C384.615 118.245 391.507 118.503 398.024 116.781L402.103 140.259Z" fill="#00CCA3"/>
<path d="M547.011 42.7694H481.481C481.372 42.7694 481.268 42.7266 481.191 42.6504C481.114 42.5742 481.071 42.4709 481.071 42.3632C481.071 42.2555 481.114 42.1522 481.191 42.076C481.268 41.9998 481.372 41.957 481.481 41.957H547.011C547.12 41.957 547.224 41.9998 547.301 42.076C547.378 42.1522 547.421 42.2555 547.421 42.3632C547.421 42.4709 547.378 42.5742 547.301 42.6504C547.224 42.7266 547.12 42.7694 547.011 42.7694Z" fill="#00CCA3"/>
<path d="M547.011 71.2196H481.481C481.372 71.2196 481.268 71.1768 481.191 71.1006C481.114 71.0244 481.071 70.9211 481.071 70.8134C481.071 70.7057 481.114 70.6024 481.191 70.5262C481.268 70.45 481.372 70.4072 481.481 70.4072H547.011C547.12 70.4072 547.224 70.45 547.301 70.5262C547.378 70.6024 547.421 70.7057 547.421 70.8134C547.421 70.9211 547.378 71.0244 547.301 71.1006C547.224 71.1768 547.12 71.2196 547.011 71.2196Z" fill="#292A2E"/>
<g opacity="0.5">
<path d="M547.008 99.6658H481.478C481.423 99.6679 481.368 99.6589 481.317 99.6394C481.265 99.62 481.218 99.5904 481.178 99.5525C481.138 99.5146 481.107 99.4692 481.085 99.4189C481.064 99.3686 481.052 99.3146 481.052 99.2599C481.052 99.2053 481.064 99.1512 481.085 99.101C481.107 99.0507 481.138 99.0053 481.178 98.9674C481.218 98.9295 481.265 98.8999 481.317 98.8804C481.368 98.861 481.423 98.852 481.478 98.854H547.008C547.063 98.852 547.118 98.861 547.17 98.8804C547.221 98.8999 547.268 98.9295 547.308 98.9674C547.348 99.0053 547.38 99.0507 547.401 99.101C547.423 99.1512 547.434 99.2053 547.434 99.2599C547.434 99.3146 547.423 99.3686 547.401 99.4189C547.38 99.4692 547.348 99.5146 547.308 99.5525C547.268 99.5904 547.221 99.62 547.17 99.6394C547.118 99.6589 547.063 99.6679 547.008 99.6658Z" fill="#00CCA3"/>
</g>
<g opacity="0.2">
<path d="M547.008 128.114H481.478C481.423 128.116 481.368 128.107 481.317 128.088C481.265 128.068 481.218 128.039 481.178 128.001C481.138 127.963 481.107 127.918 481.085 127.867C481.064 127.817 481.052 127.763 481.052 127.708C481.052 127.654 481.064 127.6 481.085 127.549C481.107 127.499 481.138 127.454 481.178 127.416C481.218 127.378 481.265 127.348 481.317 127.329C481.368 127.309 481.423 127.3 481.478 127.303H547.008C547.063 127.3 547.118 127.309 547.17 127.329C547.221 127.348 547.268 127.378 547.308 127.416C547.348 127.454 547.38 127.499 547.401 127.549C547.423 127.6 547.434 127.654 547.434 127.708C547.434 127.763 547.423 127.817 547.401 127.867C547.38 127.918 547.348 127.963 547.308 128.001C547.268 128.039 547.221 128.068 547.17 128.088C547.118 128.107 547.063 128.116 547.008 128.114Z" fill="#00CCA3"/>
</g>
<g opacity="0.1">
<path d="M547.29 282.726H334.039C332.185 282.725 330.407 281.997 329.095 280.704C327.784 279.41 327.046 277.656 327.044 275.827V169.244C327.046 167.415 327.783 165.662 329.094 164.368C330.405 163.075 332.183 162.348 334.037 162.346H547.29C549.144 162.348 550.922 163.075 552.233 164.369C553.544 165.662 554.281 167.415 554.283 169.244V275.827C554.281 277.656 553.544 279.41 552.233 280.703C550.922 281.996 549.144 282.724 547.29 282.726Z" fill="#00CCA3"/>
</g>
<path opacity="0.5" d="M356.115 186.523H351.963C351.338 186.523 350.832 187.023 350.832 187.639V265.878C350.832 266.495 351.338 266.994 351.963 266.994H356.115C356.74 266.994 357.246 266.495 357.246 265.878V187.639C357.246 187.023 356.74 186.523 356.115 186.523Z" fill="#00CCA3"/>
<path d="M349.701 211.798H345.549C344.925 211.798 344.418 212.297 344.418 212.914V265.879C344.418 266.495 344.925 266.995 345.549 266.995H349.701C350.326 266.995 350.832 266.495 350.832 265.879V212.914C350.832 212.297 350.326 211.798 349.701 211.798Z" fill="#00CCA3"/>
<path opacity="0.5" d="M407.446 256.812H403.294C402.67 256.812 402.163 257.312 402.163 257.928V265.879C402.163 266.495 402.67 266.995 403.294 266.995H407.446C408.071 266.995 408.577 266.495 408.577 265.879V257.928C408.577 257.312 408.071 256.812 407.446 256.812Z" fill="#00CCA3"/>
<path d="M401.029 207.253H396.878C396.253 207.253 395.746 207.753 395.746 208.369V265.878C395.746 266.495 396.253 266.994 396.878 266.994H401.029C401.654 266.994 402.161 266.495 402.161 265.878V208.369C402.161 207.753 401.654 207.253 401.029 207.253Z" fill="#00CCA3"/>
<path opacity="0.5" d="M381.781 218.827H377.629C377.004 218.827 376.498 219.327 376.498 219.943V265.878C376.498 266.495 377.004 266.994 377.629 266.994H381.781C382.405 266.994 382.912 266.495 382.912 265.878V219.943C382.912 219.327 382.405 218.827 381.781 218.827Z" fill="#00CCA3"/>
<path d="M375.364 235.47H371.213C370.588 235.47 370.081 235.97 370.081 236.586V265.879C370.081 266.495 370.588 266.995 371.213 266.995H375.364C375.989 266.995 376.496 266.495 376.496 265.879V236.586C376.496 235.97 375.989 235.47 375.364 235.47Z" fill="#00CCA3"/>
<path opacity="0.5" d="M484.445 202.087H480.293C479.669 202.087 479.162 202.587 479.162 203.203V265.879C479.162 266.496 479.669 266.995 480.293 266.995H484.445C485.07 266.995 485.576 266.496 485.576 265.879V203.203C485.576 202.587 485.07 202.087 484.445 202.087Z" fill="#00CCA3"/>
<path d="M478.034 225.984H473.882C473.257 225.984 472.751 226.483 472.751 227.1V265.879C472.751 266.495 473.257 266.995 473.882 266.995H478.034C478.659 266.995 479.165 266.495 479.165 265.879V227.1C479.165 226.483 478.659 225.984 478.034 225.984Z" fill="#00CCA3"/>
<path opacity="0.5" d="M433.114 212.211H428.962C428.338 212.211 427.831 212.711 427.831 213.327V265.878C427.831 266.494 428.338 266.994 428.962 266.994H433.114C433.739 266.994 434.245 266.494 434.245 265.878V213.327C434.245 212.711 433.739 212.211 433.114 212.211Z" fill="#00CCA3"/>
<path d="M426.703 218.414H422.551C421.926 218.414 421.42 218.913 421.42 219.53V265.879C421.42 266.495 421.926 266.995 422.551 266.995H426.703C427.328 266.995 427.834 266.495 427.834 265.879V219.53C427.834 218.913 427.328 218.414 426.703 218.414Z" fill="#00CCA3"/>
<path opacity="0.5" d="M458.785 186.523H454.633C454.008 186.523 453.502 187.023 453.502 187.639V265.878C453.502 266.495 454.008 266.994 454.633 266.994H458.785C459.409 266.994 459.916 266.495 459.916 265.878V187.639C459.916 187.023 459.409 186.523 458.785 186.523Z" fill="#00CCA3"/>
<path d="M452.366 190.4H448.214C447.589 190.4 447.083 190.9 447.083 191.516V265.879C447.083 266.495 447.589 266.995 448.214 266.995H452.366C452.991 266.995 453.497 266.495 453.497 265.879V191.516C453.497 190.9 452.991 190.4 452.366 190.4Z" fill="#00CCA3"/>
<path opacity="0.5" d="M510.111 186.524H505.959C505.334 186.524 504.828 187.024 504.828 187.64V265.879C504.828 266.495 505.334 266.995 505.959 266.995H510.111C510.735 266.995 511.242 266.495 511.242 265.879V187.64C511.242 187.024 510.735 186.524 510.111 186.524Z" fill="#00CCA3"/>
<path d="M503.699 211.798H499.548C498.923 211.798 498.416 212.297 498.416 212.914V265.879C498.416 266.495 498.923 266.995 499.548 266.995H503.699C504.324 266.995 504.831 266.495 504.831 265.879V212.914C504.831 212.297 504.324 211.798 503.699 211.798Z" fill="#00CCA3"/>
<path opacity="0.5" d="M535.781 218.827H531.629C531.005 218.827 530.498 219.326 530.498 219.943V265.878C530.498 266.494 531.005 266.994 531.629 266.994H535.781C536.406 266.994 536.912 266.494 536.912 265.878V219.943C536.912 219.326 536.406 218.827 535.781 218.827Z" fill="#00CCA3"/>
<path d="M529.367 235.47H525.216C524.591 235.47 524.084 235.97 524.084 236.586V265.879C524.084 266.495 524.591 266.995 525.216 266.995H529.367C529.992 266.995 530.499 266.495 530.499 265.879V236.586C530.499 235.97 529.992 235.47 529.367 235.47Z" fill="#00CCA3"/>
<path d="M234.739 577.509L233.817 577.335L248.233 436.014L249.155 436.189L234.739 577.509Z" fill="#494949"/>
<path d="M288.418 577.509L287.497 577.335L301.912 436.014L302.835 436.189L288.418 577.509Z" fill="#494949"/>
<path d="M407.074 577.509L407.997 577.335L393.581 436.014L392.658 436.189L407.074 577.509Z" fill="#494949"/>
<path d="M353.394 577.509L354.316 577.335L339.9 436.014L338.979 436.189L353.394 577.509Z" fill="#494949"/>
<path d="M334.282 373.82L333.351 373.943L341.773 436.166L342.704 436.043L334.282 373.82Z" fill="#494949"/>
<path d="M237.615 373.819L236.684 373.942L245.105 436.165L246.036 436.042L237.615 373.819Z" fill="#494949"/>
<path d="M342.621 431.545H248.073C245.522 431.545 243.454 433.585 243.454 436.102V436.102C243.454 438.619 245.522 440.659 248.073 440.659H342.621C345.172 440.659 347.24 438.619 347.24 436.102V436.102C347.24 433.585 345.172 431.545 342.621 431.545Z" fill="#292A2E"/>
<path opacity="0.8" d="M342.621 431.545H248.073C245.522 431.545 243.454 433.585 243.454 436.102V436.102C243.454 438.619 245.522 440.659 248.073 440.659H342.621C345.172 440.659 347.24 438.619 347.24 436.102V436.102C347.24 433.585 345.172 431.545 342.621 431.545Z" fill="#0F0F0F"/>
<path d="M342.617 441.122H248.07C246.729 441.109 245.447 440.575 244.503 439.635C243.559 438.695 243.03 437.425 243.03 436.102C243.03 434.779 243.559 433.509 244.503 432.569C245.447 431.629 246.729 431.094 248.07 431.082H342.617C343.289 431.075 343.956 431.201 344.579 431.45C345.203 431.699 345.769 432.068 346.247 432.535C346.725 433.002 347.104 433.557 347.363 434.17C347.622 434.782 347.755 435.439 347.755 436.102C347.755 436.765 347.622 437.422 347.363 438.034C347.104 438.646 346.725 439.202 346.247 439.669C345.769 440.136 345.203 440.504 344.579 440.754C343.956 441.003 343.289 441.128 342.617 441.122ZM248.07 432.008C246.977 432.02 245.933 432.456 245.164 433.223C244.395 433.989 243.964 435.024 243.964 436.102C243.964 437.18 244.395 438.215 245.164 438.981C245.933 439.748 246.977 440.184 248.07 440.195H342.617C343.166 440.201 343.71 440.099 344.219 439.896C344.727 439.693 345.19 439.393 345.58 439.012C345.97 438.631 346.279 438.178 346.491 437.678C346.702 437.179 346.811 436.643 346.811 436.102C346.811 435.561 346.702 435.025 346.491 434.525C346.279 434.026 345.97 433.573 345.58 433.192C345.19 432.811 344.727 432.511 344.219 432.307C343.71 432.104 343.166 432.003 342.617 432.008H248.07Z" fill="#292A2E"/>
<path d="M394.512 431.545H299.964C297.413 431.545 295.345 433.585 295.345 436.102V436.102C295.345 438.619 297.413 440.659 299.964 440.659H394.512C397.063 440.659 399.131 438.619 399.131 436.102V436.102C399.131 433.585 397.063 431.545 394.512 431.545Z" fill="#0F0F0F"/>
<path d="M394.511 441.122H299.963C298.622 441.109 297.34 440.575 296.396 439.635C295.453 438.695 294.923 437.425 294.923 436.102C294.923 434.779 295.453 433.509 296.396 432.569C297.34 431.629 298.622 431.094 299.963 431.082H394.511C395.184 431.075 395.851 431.201 396.474 431.45C397.097 431.699 397.664 432.068 398.141 432.535C398.619 433.002 398.998 433.557 399.257 434.17C399.516 434.782 399.649 435.439 399.649 436.102C399.649 436.765 399.516 437.422 399.257 438.034C398.998 438.646 398.619 439.202 398.141 439.669C397.664 440.136 397.097 440.504 396.474 440.754C395.851 441.003 395.184 441.128 394.511 441.122ZM299.963 432.008C298.87 432.02 297.826 432.456 297.057 433.223C296.289 433.989 295.858 435.024 295.858 436.102C295.858 437.18 296.289 438.215 297.057 438.981C297.826 439.748 298.87 440.184 299.963 440.195H394.511C395.06 440.201 395.604 440.099 396.113 439.896C396.621 439.693 397.084 439.393 397.474 439.012C397.864 438.631 398.174 438.178 398.385 437.678C398.596 437.179 398.705 436.643 398.705 436.102C398.705 435.561 398.596 435.025 398.385 434.525C398.174 434.026 397.864 433.573 397.474 433.192C397.084 432.811 396.621 432.511 396.113 432.307C395.604 432.104 395.06 432.003 394.511 432.008H299.963Z" fill="#292A2E"/>
<path d="M329.098 373.879H237.402C235.903 373.879 234.455 373.341 233.329 372.365C232.202 371.389 231.474 370.042 231.281 368.576L225.215 322.626C225.102 321.767 225.176 320.894 225.431 320.065C225.687 319.237 226.119 318.471 226.699 317.821C227.278 317.17 227.991 316.648 228.791 316.291C229.591 315.934 230.459 315.749 231.337 315.749H323.032C324.532 315.749 325.98 316.287 327.106 317.263C328.233 318.239 328.961 319.586 329.154 321.053L335.219 367.003C335.333 367.861 335.259 368.734 335.003 369.563C334.748 370.392 334.316 371.157 333.736 371.808C333.157 372.458 332.443 372.98 331.644 373.337C330.844 373.694 329.976 373.879 329.098 373.879Z" fill="#292A2E"/>
<path opacity="0.8" d="M329.098 373.879H237.402C235.903 373.879 234.455 373.341 233.329 372.365C232.202 371.389 231.474 370.042 231.281 368.576L225.215 322.626C225.102 321.767 225.176 320.894 225.431 320.065C225.687 319.237 226.119 318.471 226.699 317.821C227.278 317.17 227.991 316.648 228.791 316.291C229.591 315.934 230.459 315.749 231.337 315.749H323.032C324.532 315.749 325.98 316.287 327.106 317.263C328.233 318.239 328.961 319.586 329.154 321.053L335.219 367.003C335.333 367.861 335.259 368.734 335.003 369.563C334.748 370.392 334.316 371.157 333.736 371.808C333.157 372.458 332.443 372.98 331.644 373.337C330.844 373.694 329.976 373.879 329.098 373.879Z" fill="#0F0F0F"/>
<path d="M329.099 374.342H237.403C235.791 374.339 234.235 373.758 233.023 372.709C231.812 371.659 231.027 370.212 230.815 368.635L224.75 322.685C224.628 321.761 224.708 320.822 224.983 319.93C225.258 319.038 225.723 318.215 226.346 317.515C226.97 316.814 227.737 316.253 228.598 315.869C229.459 315.485 230.393 315.286 231.338 315.286H323.033C324.645 315.289 326.202 315.87 327.413 316.919C328.624 317.969 329.409 319.417 329.62 320.993L335.686 366.943C335.808 367.867 335.729 368.806 335.453 369.698C335.178 370.59 334.713 371.413 334.09 372.113C333.466 372.814 332.699 373.375 331.838 373.759C330.977 374.143 330.043 374.342 329.099 374.342ZM231.338 316.212C230.526 316.213 229.725 316.383 228.986 316.713C228.247 317.043 227.587 317.525 227.052 318.126C226.517 318.728 226.118 319.435 225.881 320.2C225.645 320.966 225.577 321.772 225.682 322.566L231.747 368.516C231.929 369.869 232.602 371.112 233.643 372.013C234.683 372.914 236.019 373.413 237.403 373.416H329.099C329.91 373.416 330.712 373.245 331.451 372.915C332.19 372.585 332.849 372.103 333.384 371.502C333.919 370.9 334.318 370.193 334.555 369.428C334.791 368.662 334.859 367.856 334.754 367.062L328.689 321.112C328.507 319.759 327.834 318.516 326.794 317.615C325.753 316.714 324.417 316.216 323.033 316.212H231.338Z" fill="#292A2E"/>
<path d="M334.283 373.879H242.588C241.089 373.879 239.641 373.34 238.515 372.364C237.389 371.389 236.661 370.042 236.468 368.576L230.403 322.626C230.289 321.767 230.363 320.894 230.618 320.065C230.874 319.237 231.306 318.471 231.885 317.821C232.465 317.17 233.178 316.648 233.978 316.291C234.778 315.934 235.646 315.749 236.524 315.749H328.218C329.717 315.749 331.165 316.287 332.292 317.263C333.419 318.239 334.147 319.586 334.341 321.053L340.406 367.003C340.519 367.862 340.446 368.735 340.19 369.563C339.934 370.392 339.502 371.157 338.922 371.808C338.343 372.459 337.629 372.98 336.829 373.337C336.029 373.694 335.161 373.879 334.283 373.879Z" fill="#0F0F0F"/>
<path d="M334.283 374.342H242.587C240.975 374.339 239.419 373.758 238.208 372.709C236.996 371.659 236.212 370.212 236 368.635L229.935 322.685C229.813 321.761 229.892 320.822 230.168 319.93C230.443 319.039 230.908 318.215 231.531 317.515C232.155 316.815 232.922 316.254 233.783 315.869C234.644 315.485 235.578 315.286 236.523 315.286H328.218C329.83 315.289 331.386 315.87 332.598 316.919C333.809 317.969 334.593 319.417 334.805 320.993L340.868 366.943C340.99 367.867 340.911 368.806 340.635 369.698C340.36 370.589 339.895 371.413 339.272 372.113C338.648 372.813 337.881 373.374 337.02 373.759C336.159 374.143 335.225 374.342 334.281 374.342H334.283ZM236.523 316.212C235.711 316.213 234.909 316.383 234.17 316.713C233.431 317.043 232.772 317.525 232.237 318.126C231.702 318.728 231.303 319.435 231.066 320.2C230.83 320.966 230.762 321.772 230.867 322.566L236.932 368.516C237.113 369.869 237.787 371.112 238.827 372.013C239.867 372.914 241.203 373.412 242.587 373.416H334.283C335.094 373.416 335.896 373.245 336.635 372.915C337.374 372.585 338.033 372.103 338.568 371.502C339.104 370.9 339.503 370.193 339.739 369.428C339.975 368.662 340.044 367.856 339.939 367.062L333.873 321.112C333.692 319.759 333.018 318.516 331.978 317.615C330.938 316.714 329.602 316.215 328.218 316.212H236.523Z" fill="#292A2E"/>
<path d="M401.893 554.089C401.893 554.089 404.411 566.966 416.632 567.684C428.854 568.402 426.201 578.006 426.201 578.006H379.5V554.987L401.893 554.089Z" fill="#00AA88"/>
<path d="M355.154 545.14C355.154 545.14 351.685 557.938 362.228 563.974C372.771 570.01 366.159 577.56 366.159 577.56L324.656 556.984L334.856 536.089L355.154 545.14Z" fill="#00AA88"/>
<path d="M329.338 541.658L374.071 431.676H319.408C306.539 431.676 301.175 420.911 301.175 408.217C301.175 395.524 313.825 384.396 326.693 384.396H403.755C411.603 384.396 420.403 389.131 424.71 395.604C429.017 402.076 427.853 412.105 424.732 419.209L358.748 554.802" fill="#262626"/>
<path opacity="0.8" d="M329.338 541.658L374.071 431.676H319.408C306.539 431.676 301.175 420.911 301.175 408.217C301.175 395.524 313.825 384.396 326.693 384.396H403.755C411.603 384.396 420.403 389.131 424.71 395.604C429.017 402.076 427.853 412.105 424.732 419.209L358.748 554.802" fill="#161616"/>
<path d="M375.851 562.592L350.585 431.676L301.174 431.671C282.994 430.265 274.668 420.436 274.933 407.745C275.194 395.215 281.625 382.839 294.269 382.839H370.664C380.019 383.029 390.85 391.759 390.85 401.799L410.373 561.071" fill="#262626"/>
<path d="M269.638 382.993C269.638 382.993 266.192 405.16 271.654 417.484C278.472 432.87 304.034 431.671 304.034 431.671L302.593 382.839L269.638 382.993Z" fill="#262626"/>
<path d="M283.122 244.828C283.853 261.477 280.939 267.478 273.545 276.684C267.309 284.449 301.113 279.051 316.047 277.071L304.6 238.8C304.6 238.8 282.868 238.982 283.122 244.828Z" fill="#0A0A0A"/>
<path d="M333.244 240.517C336.921 256.779 336.214 261.736 344.408 270.539C351.199 277.837 323.488 278.094 308.542 280.011L309.519 240.121C309.519 240.121 331.952 234.806 333.244 240.517Z" fill="#0A0A0A"/>
<path d="M265.841 380.489L265.742 380.494C265.742 380.494 265.814 378.603 265.841 380.489Z" fill="#333333"/>
<path d="M265.964 380.489L265.865 380.494C265.865 380.494 265.937 378.603 265.964 380.489Z" fill="#333333"/>
<path d="M432.305 290.617C432.122 290.26 431.831 289.968 431.473 289.781C431.115 289.593 430.706 289.521 430.304 289.572C430.307 289.548 430.305 289.524 430.297 289.501C430.289 289.478 430.275 289.458 430.257 289.441C430.239 289.425 430.217 289.413 430.193 289.407C430.169 289.401 430.144 289.401 430.121 289.406L431.478 288.446C431.884 288.172 432.176 287.762 432.3 287.292C432.423 286.822 432.37 286.324 432.15 285.89C431.919 285.468 431.537 285.146 431.079 284.986C430.62 284.826 430.118 284.839 429.669 285.024C429.673 285.005 429.66 284.987 429.657 284.967L430.215 284.573C430.596 284.313 430.875 283.931 431.003 283.491C431.131 283.052 431.102 282.582 430.919 282.162C430.8 281.9 430.623 281.668 430.401 281.482C430.18 281.296 429.919 281.161 429.638 281.087C429.358 281.012 429.064 281 428.777 281.052C428.491 281.103 428.22 281.216 427.984 281.383L426.697 282.293C426.693 282.285 426.697 282.277 426.692 282.27C426.687 282.263 426.673 282.26 426.665 282.253C426.961 281.924 427.135 281.507 427.158 281.069C427.182 280.631 427.054 280.197 426.795 279.841C426.187 278.876 424.785 279.073 423.952 279.662L416.377 284.824L417.731 282.575C418.004 282.142 418.1 281.623 418 281.123C417.9 280.623 417.611 280.18 417.191 279.882C416.97 279.735 416.72 279.635 416.458 279.587C416.196 279.539 415.926 279.544 415.666 279.602C415.406 279.661 415.161 279.77 414.945 279.925C414.729 280.08 414.548 280.276 414.412 280.503L407.018 292.78C406.151 294.221 405.887 295.938 406.283 297.567C406.678 299.197 407.702 300.609 409.137 301.506C410.801 302.545 412.742 303.071 414.711 303.015C416.68 302.959 418.587 302.325 420.188 301.193L431.628 293.103C432.008 292.825 432.282 292.428 432.405 291.976C432.528 291.525 432.492 291.046 432.305 290.617Z" fill="#EAB099"/>
<g opacity="0.25">
<path d="M419.203 287.394C419.231 287.432 419.273 287.458 419.319 287.466C419.366 287.473 419.414 287.463 419.453 287.436L426.651 282.518C426.69 282.491 426.716 282.45 426.725 282.403C426.733 282.357 426.723 282.309 426.695 282.27C426.668 282.231 426.627 282.205 426.58 282.196C426.533 282.187 426.484 282.198 426.444 282.224L419.246 287.142C419.227 287.156 419.21 287.173 419.197 287.192C419.184 287.212 419.175 287.234 419.171 287.257C419.166 287.28 419.166 287.304 419.171 287.327C419.176 287.35 419.186 287.372 419.199 287.391L419.203 287.394Z" fill="#0C0C0C"/>
</g>
<g opacity="0.25">
<path d="M421.309 290.586C421.337 290.624 421.379 290.65 421.425 290.657C421.472 290.665 421.52 290.655 421.559 290.628L429.592 285.139C429.611 285.126 429.628 285.109 429.641 285.089C429.654 285.07 429.663 285.048 429.667 285.025C429.672 285.001 429.672 284.978 429.667 284.955C429.662 284.932 429.652 284.91 429.639 284.891C429.61 284.853 429.569 284.827 429.522 284.818C429.475 284.81 429.427 284.819 429.386 284.844L421.356 290.333C421.336 290.346 421.319 290.363 421.306 290.383C421.293 290.403 421.284 290.425 421.28 290.448C421.276 290.471 421.276 290.495 421.281 290.518C421.286 290.541 421.295 290.562 421.309 290.582L421.309 290.586Z" fill="#0C0C0C"/>
</g>
<g opacity="0.25">
<path d="M423.58 294.056C423.607 294.094 423.649 294.119 423.696 294.127C423.742 294.135 423.79 294.124 423.829 294.098L430.237 289.72C430.257 289.707 430.275 289.69 430.289 289.67C430.303 289.65 430.313 289.628 430.318 289.604C430.323 289.58 430.323 289.556 430.318 289.532C430.313 289.509 430.304 289.486 430.29 289.466C430.276 289.446 430.258 289.429 430.237 289.417C430.216 289.404 430.193 289.395 430.169 289.391C430.145 289.388 430.12 289.389 430.096 289.395C430.072 289.401 430.05 289.411 430.03 289.426L423.621 293.804C423.602 293.817 423.585 293.834 423.572 293.854C423.559 293.874 423.55 293.896 423.546 293.919C423.541 293.942 423.541 293.966 423.546 293.989C423.551 294.012 423.561 294.033 423.574 294.053L423.58 294.056Z" fill="#0C0C0C"/>
</g>
<path d="M416.381 284.824L417.735 282.575C418.008 282.142 418.104 281.624 418.004 281.124C417.904 280.624 417.615 280.18 417.196 279.882C416.974 279.736 416.724 279.635 416.462 279.587C416.2 279.539 415.93 279.545 415.67 279.603C415.41 279.661 415.165 279.771 414.949 279.925C414.733 280.08 414.552 280.277 414.416 280.503L407.022 292.78" fill="#EAB099"/>
<path d="M402.656 289.985L380.943 326.465L354.449 292.184L332.448 311.752L370.022 359.757L370.268 360.099C371.772 362.131 373.776 363.752 376.09 364.809C378.405 365.866 380.954 366.324 383.498 366.141C386.042 365.957 388.496 365.137 390.63 363.759C392.764 362.381 394.507 360.49 395.695 358.263L426.57 303.105L402.656 289.985Z" fill="#00CCA3"/>
<path d="M378.815 330.851C378.768 330.851 378.722 330.839 378.68 330.817C378.639 330.794 378.605 330.761 378.58 330.721C378.555 330.682 378.541 330.636 378.539 330.59C378.538 330.543 378.548 330.497 378.57 330.456L380.698 326.341C380.731 326.277 380.789 326.228 380.859 326.206C380.928 326.184 381.004 326.19 381.069 326.222C381.134 326.255 381.184 326.312 381.206 326.381C381.229 326.449 381.223 326.524 381.189 326.588L379.061 330.703C379.038 330.748 379.003 330.785 378.959 330.811C378.916 330.837 378.866 330.851 378.815 330.851Z" fill="#0C0C0C"/>
<path d="M352.922 326.257L352.259 337.778L352.81 337.809L353.473 326.287L352.922 326.257Z" fill="#0C0C0C"/>
<path d="M328.865 284.391C328.771 284.378 327.741 301.255 307.865 299.785C294.105 298.768 289.2 284.366 288.885 284.366C290.368 284.056 292.866 283.603 293.525 283.254C295.691 282.106 298.373 280.911 299.071 276.76C299.473 274.368 298.789 262.129 299.001 259.708L320.122 264.359C319.826 269.471 317.761 281.322 325 283.419C326.205 283.768 327.502 284.088 328.865 284.391Z" fill="#EAB099"/>
<path opacity="0.52" d="M320.414 278.578C320.084 277.526 319.871 276.442 319.78 275.344C319.547 272.84 319.593 270.318 319.917 267.823C315.624 267.251 311.58 265.503 308.244 262.778C307.852 264.206 305.695 270.45 306.292 271.808C307.421 274.375 312.726 278.578 320.414 278.578Z" fill="#0C0C0C"/>
<path d="M317.616 273.266C309.28 273.966 298.545 270.557 296.441 259.593L294.543 249.7C292.44 238.735 296.573 228.759 307.036 226.804C317.501 224.85 327.027 232.278 329.131 243.242L329.971 247.622C330.78 251.829 332.488 272.018 317.616 273.266Z" fill="#EAB099"/>
<path d="M326.989 248.099C327.713 248.099 328.3 247.52 328.3 246.805C328.3 246.091 327.713 245.511 326.989 245.511C326.264 245.511 325.677 246.091 325.677 246.805C325.677 247.52 326.264 248.099 326.989 248.099Z" fill="#0C0C0C"/>
<path d="M313.552 249.87C314.276 249.87 314.863 249.291 314.863 248.576C314.863 247.862 314.276 247.282 313.552 247.282C312.827 247.282 312.24 247.862 312.24 248.576C312.24 249.291 312.827 249.87 313.552 249.87Z" fill="#0C0C0C"/>
<path opacity="0.52" d="M320.926 258.063C320.933 258.063 320.94 258.062 320.947 258.061C321.37 257.978 321.789 257.873 322.201 257.745C322.817 257.55 323.623 257.227 323.516 256.68C323.397 256.055 320.37 249.637 320.024 248.909C320.009 248.877 319.988 248.848 319.962 248.824C319.936 248.801 319.906 248.782 319.872 248.77C319.839 248.758 319.804 248.752 319.768 248.754C319.733 248.755 319.698 248.764 319.666 248.778C319.634 248.793 319.605 248.814 319.581 248.84C319.557 248.866 319.539 248.896 319.527 248.929C319.515 248.962 319.509 248.997 319.511 249.032C319.513 249.067 319.522 249.101 319.537 249.132C320.828 251.866 322.907 256.36 322.988 256.777C322.919 256.972 321.897 257.342 320.845 257.539C320.776 257.551 320.715 257.589 320.674 257.645C320.633 257.701 320.616 257.771 320.627 257.839C320.637 257.907 320.674 257.969 320.729 258.011C320.785 258.053 320.855 258.071 320.925 258.063L320.926 258.063Z" fill="#0C0C0C"/>
<path opacity="0.52" d="M319.375 262.798C321.081 262.579 322.712 261.968 324.136 261.013C324.165 260.994 324.191 260.97 324.211 260.941C324.231 260.912 324.245 260.88 324.252 260.846C324.259 260.812 324.26 260.777 324.253 260.742C324.247 260.708 324.234 260.676 324.214 260.646C324.195 260.617 324.17 260.592 324.141 260.572C324.112 260.553 324.079 260.539 324.045 260.532C324.01 260.524 323.975 260.524 323.94 260.53C323.905 260.537 323.872 260.55 323.843 260.569C320.762 262.549 317.701 262.869 314.991 261.495C314.936 261.466 314.879 261.439 314.821 261.416C314.754 261.392 314.681 261.396 314.616 261.425C314.552 261.455 314.502 261.509 314.477 261.575C314.453 261.641 314.457 261.714 314.487 261.778C314.517 261.842 314.572 261.891 314.639 261.915C314.66 261.923 314.696 261.942 314.744 261.967C316.17 262.692 317.782 262.981 319.375 262.798Z" fill="#0C0C0C"/>
<path d="M297.731 262.812C294.551 263.406 291.329 260.531 290.727 257.391C290.125 254.252 292.371 252.043 295.552 251.449L297.594 253.245L300.465 262.3L297.731 262.812Z" fill="#EAB099"/>
<path d="M321.94 243.664C322.868 243.073 323.939 242.74 325.043 242.698C325.586 242.674 326.13 242.73 326.656 242.866C327.177 242.998 327.679 243.194 328.15 243.45C328.21 243.486 328.255 243.542 328.275 243.609C328.295 243.675 328.289 243.746 328.258 243.809C328.228 243.871 328.175 243.92 328.11 243.946C328.045 243.972 327.972 243.973 327.907 243.949L327.886 243.94C327.451 243.729 326.99 243.574 326.515 243.477C326.045 243.377 325.563 243.349 325.085 243.392C324.136 243.47 323.225 243.795 322.444 244.333L322.419 244.351C322.374 244.388 322.323 244.416 322.267 244.432C322.211 244.448 322.153 244.453 322.095 244.446C322.038 244.439 321.982 244.42 321.932 244.391C321.882 244.362 321.839 244.323 321.804 244.277C321.77 244.23 321.746 244.177 321.734 244.121C321.721 244.066 321.721 244.008 321.732 243.951C321.743 243.895 321.766 243.842 321.799 243.795C321.832 243.748 321.875 243.708 321.924 243.678L321.94 243.664Z" fill="#0C0C0C"/>
<path d="M313.572 245.607C312.648 245.384 311.679 245.406 310.766 245.671C310.304 245.801 309.865 246 309.464 246.259C309.056 246.52 308.684 246.83 308.355 247.182L308.34 247.197C308.288 247.243 308.22 247.269 308.149 247.268C308.079 247.267 308.012 247.24 307.96 247.193C307.909 247.146 307.877 247.081 307.872 247.012C307.866 246.943 307.887 246.874 307.93 246.82C308.276 246.413 308.672 246.051 309.109 245.742C309.55 245.429 310.036 245.182 310.552 245.01C311.596 244.656 312.717 244.585 313.799 244.806C313.856 244.814 313.911 244.834 313.96 244.864C314.009 244.894 314.052 244.934 314.085 244.981C314.118 245.028 314.141 245.081 314.152 245.137C314.164 245.193 314.163 245.25 314.151 245.306C314.139 245.362 314.115 245.415 314.082 245.461C314.048 245.508 314.005 245.547 313.955 245.576C313.906 245.606 313.85 245.625 313.793 245.632C313.736 245.639 313.677 245.635 313.622 245.62L313.604 245.615L313.572 245.607Z" fill="#0C0C0C"/>
<path opacity="0.52" d="M319.739 265.287C320.048 265.252 320.354 265.191 320.653 265.105C320.722 265.086 320.78 265.041 320.814 264.979C320.849 264.917 320.857 264.845 320.837 264.777C320.818 264.71 320.771 264.653 320.709 264.619C320.647 264.585 320.573 264.576 320.505 264.596C318.706 265.105 317.683 264.43 317.64 264.401C317.582 264.36 317.509 264.344 317.439 264.357C317.369 264.369 317.306 264.408 317.265 264.465C317.224 264.523 317.208 264.594 317.221 264.663C317.233 264.733 317.273 264.794 317.331 264.835C318.057 265.255 318.908 265.415 319.739 265.287Z" fill="#0C0C0C"/>
<path opacity="0.1" d="M312.492 258.872C313.864 258.726 314.889 257.803 314.78 256.81C314.672 255.817 313.472 255.13 312.1 255.276C310.727 255.422 309.703 256.345 309.811 257.338C309.919 258.331 311.12 259.017 312.492 258.872Z" fill="#0C0C0C"/>
<path opacity="0.1" d="M327.013 255.072C327.124 256.064 328.324 256.75 329.696 256.606C329.933 256.581 330.167 256.531 330.394 256.459C330.472 255.279 330.488 254.142 330.466 253.091C330.086 252.993 329.692 252.966 329.302 253.011C327.931 253.154 326.907 254.077 327.013 255.072Z" fill="#0C0C0C"/>
<path d="M353.558 321.547C352.931 328.803 349.886 373.9 349.284 382.839L269.64 383.006C269.17 374.944 263.757 339.7 261.98 323.938C260.284 308.898 256.955 301.367 259.397 296.92C263.383 289.653 274.276 285.454 281.705 284.461C286.238 283.857 293.062 283.422 293.062 283.422C293.062 283.422 293.639 294.948 307.412 295.59C326.16 296.462 324.908 283.422 325.001 283.422C328.038 283.422 345.389 285.318 349.634 287.8C361.199 294.559 354.886 306.172 353.558 321.547Z" fill="#00CCA3"/>
<path d="M405.254 326.616L397.577 363.427C397.421 364.174 397.01 364.846 396.413 365.331C395.815 365.816 395.067 366.084 394.294 366.09L341.431 366.534C340.926 366.538 340.427 366.431 339.971 366.221C339.514 366.01 339.11 365.701 338.79 365.317C338.47 364.933 338.24 364.483 338.119 364C337.998 363.517 337.988 363.013 338.09 362.526L345.767 325.716C345.923 324.968 346.334 324.296 346.931 323.811C347.529 323.327 348.277 323.059 349.051 323.053L401.914 322.608C402.418 322.604 402.917 322.711 403.373 322.922C403.83 323.132 404.234 323.441 404.554 323.825C404.874 324.21 405.103 324.66 405.224 325.143C405.346 325.625 405.356 326.129 405.254 326.616Z" fill="#292A2E"/>
<path d="M355.958 352.763C355.985 353.248 355.835 353.726 355.534 354.11C355.233 354.494 354.801 354.757 354.319 354.853L352.692 355.207C352.721 355.216 352.747 355.233 352.768 355.254C352.789 355.276 352.804 355.303 352.813 355.332C352.817 355.366 352.809 355.4 352.791 355.429C353.182 355.538 353.529 355.764 353.784 356.076C354.039 356.388 354.19 356.771 354.214 357.171C354.216 357.637 354.059 358.091 353.768 358.458C353.476 358.826 353.068 359.085 352.609 359.196L338.867 362.207C338.164 362.362 337.446 362.44 336.726 362.439C335.122 362.438 333.543 362.053 332.123 361.317C330.704 360.58 329.487 359.514 328.579 358.21C327.615 356.831 327.235 355.135 327.519 353.483C327.803 351.832 328.73 350.355 330.101 349.367L341.791 340.937C342.048 340.751 342.347 340.63 342.663 340.583L341.587 345.737L341.874 345.671L341.934 345.661L350.899 343.859C351.897 343.642 353.265 344.001 353.442 345.122C353.536 345.551 353.481 345.999 353.285 346.393C353.089 346.788 352.764 347.105 352.361 347.293C352.367 347.299 352.378 347.304 352.378 347.315C352.378 347.326 352.372 347.331 352.372 347.342L353.922 347.005C354.206 346.943 354.5 346.943 354.783 347.007C355.066 347.071 355.332 347.195 355.56 347.372C355.789 347.549 355.975 347.774 356.104 348.031C356.234 348.287 356.305 348.569 356.311 348.855C356.311 349.313 356.15 349.756 355.857 350.11C355.563 350.464 355.154 350.707 354.7 350.798L354.032 350.945C354.027 350.966 354.032 350.988 354.022 351.005C354.508 351.009 354.976 351.191 355.333 351.516C355.691 351.841 355.914 352.285 355.958 352.763Z" fill="#EAB099"/>
<g opacity="0.25">
<path d="M343.446 349.129C343.457 349.175 343.485 349.215 343.525 349.24C343.565 349.265 343.613 349.274 343.659 349.265L352.237 347.529C352.283 347.519 352.324 347.491 352.35 347.452C352.376 347.412 352.385 347.365 352.375 347.318C352.366 347.272 352.338 347.232 352.299 347.206C352.259 347.18 352.21 347.17 352.164 347.179L343.587 348.915C343.54 348.924 343.498 348.952 343.472 348.991C343.446 349.031 343.436 349.079 343.446 349.125L343.446 349.129Z" fill="#0C0C0C"/>
</g>
<g opacity="0.25">
<path d="M344.121 352.883C344.131 352.928 344.16 352.968 344.199 352.993C344.239 353.018 344.287 353.027 344.333 353.017L353.906 351.081C353.929 351.076 353.951 351.067 353.971 351.054C353.991 351.041 354.008 351.024 354.021 351.004C354.034 350.985 354.043 350.963 354.047 350.94C354.052 350.917 354.052 350.893 354.047 350.87C354.036 350.825 354.007 350.785 353.968 350.759C353.928 350.733 353.88 350.723 353.833 350.731L344.261 352.668C344.214 352.677 344.172 352.705 344.146 352.745C344.119 352.784 344.11 352.832 344.12 352.879L344.121 352.883Z" fill="#0C0C0C"/>
</g>
<g opacity="0.25">
<path d="M344.824 356.951C344.835 356.997 344.863 357.036 344.903 357.062C344.942 357.087 344.991 357.096 345.037 357.087L352.673 355.542C352.719 355.531 352.759 355.504 352.784 355.464C352.81 355.425 352.819 355.378 352.809 355.332C352.8 355.286 352.773 355.246 352.734 355.22C352.694 355.194 352.647 355.184 352.6 355.192L344.964 356.736C344.941 356.741 344.919 356.75 344.899 356.763C344.879 356.777 344.863 356.793 344.849 356.813C344.836 356.833 344.827 356.854 344.823 356.877C344.818 356.9 344.819 356.924 344.823 356.947L344.824 356.951Z" fill="#0C0C0C"/>
</g>
<path d="M338.017 367.569L263.463 380.86C261.137 381.11 258.783 380.824 256.587 380.026C254.391 379.228 252.413 377.939 250.807 376.259C249.201 374.58 248.012 372.556 247.332 370.347C246.652 368.138 246.5 365.804 246.888 363.527L257.325 302.326C257.65 300.386 258.36 298.529 259.413 296.86C260.467 295.192 261.844 293.745 263.466 292.602C265.087 291.459 266.922 290.644 268.863 290.202C270.805 289.76 272.816 289.7 274.781 290.026C276.746 290.352 278.627 291.058 280.315 292.102C282.004 293.147 283.466 294.509 284.62 296.112C285.773 297.716 286.595 299.528 287.037 301.444C287.479 303.361 287.534 305.345 287.197 307.283L280.08 349.413L334.739 342.641L338.017 367.569Z" fill="#00CCA3"/>
<path d="M263.468 381.133C263.4 381.132 263.334 381.106 263.284 381.06C263.233 381.014 263.202 380.951 263.197 380.884C263.191 380.816 263.21 380.749 263.252 380.695C263.293 380.642 263.354 380.605 263.421 380.593L337.718 367.348L334.509 342.947L280.125 349.685C280.082 349.691 280.039 349.687 279.998 349.673C279.957 349.659 279.92 349.635 279.89 349.604C279.861 349.574 279.839 349.537 279.826 349.497C279.813 349.456 279.81 349.414 279.817 349.372L284.341 322.446C284.347 322.411 284.359 322.377 284.378 322.346C284.397 322.316 284.422 322.289 284.452 322.268C284.482 322.247 284.515 322.233 284.551 322.225C284.586 322.217 284.623 322.216 284.659 322.223C284.731 322.234 284.795 322.274 284.838 322.333C284.88 322.392 284.897 322.464 284.885 322.536L280.424 349.101L334.714 342.376C334.786 342.367 334.859 342.387 334.917 342.431C334.975 342.475 335.013 342.539 335.023 342.61L338.3 367.536C338.309 367.605 338.291 367.675 338.249 367.732C338.207 367.788 338.145 367.827 338.075 367.839L263.518 381.128C263.501 381.131 263.485 381.133 263.468 381.133Z" fill="#0C0C0C"/>
<path d="M280.04 349.146L275.244 349.903L275.332 350.443L280.128 349.686L280.04 349.146Z" fill="#0C0C0C"/>
<path d="M284.175 252.309L294.117 251.657C311.394 248.099 319.045 233.746 319.045 233.746C319.045 233.746 328.303 245.511 334.093 244.43C334.093 244.43 332.335 214.828 301.787 219.975C291.87 221.646 283.727 230.804 283.155 244C282.734 253.701 284.175 252.309 284.175 252.309Z" fill="#0A0A0A"/>
<path d="M145.73 383.448L582.965 383.448C585.09 383.448 586.813 381.748 586.813 379.651C586.813 377.555 585.09 375.855 582.965 375.855L145.73 375.855C143.605 375.855 141.882 377.555 141.882 379.651C141.882 381.748 143.605 383.448 145.73 383.448Z" fill="#292A2E"/>
<path opacity="0.8" d="M145.73 383.448L582.965 383.448C585.09 383.448 586.813 381.748 586.813 379.651C586.813 377.555 585.09 375.855 582.965 375.855L145.73 375.855C143.605 375.855 141.882 377.555 141.882 379.651C141.882 381.748 143.605 383.448 145.73 383.448Z" fill="#0F0F0F"/>
<path d="M141.415 379.652C141.416 378.523 141.871 377.44 142.68 376.641C143.49 375.843 144.587 375.393 145.732 375.393H582.966C584.111 375.393 585.209 375.841 586.019 376.64C586.829 377.439 587.283 378.522 587.283 379.652C587.283 380.782 586.829 381.865 586.019 382.664C585.209 383.463 584.111 383.912 582.966 383.912H145.732C144.587 383.911 143.49 383.462 142.68 382.663C141.871 381.864 141.416 380.782 141.415 379.652ZM145.732 376.319C144.836 376.319 143.977 376.67 143.343 377.295C142.71 377.92 142.354 378.768 142.354 379.652C142.354 380.536 142.71 381.384 143.343 382.009C143.977 382.634 144.836 382.985 145.732 382.985H582.966C583.862 382.985 584.721 382.634 585.355 382.009C585.988 381.384 586.344 380.536 586.344 379.652C586.344 378.768 585.988 377.92 585.355 377.295C584.721 376.67 583.862 376.319 582.966 376.319H145.732Z" fill="#292A2E"/>
<path d="M145.728 383.448L497.977 383.448C500.102 383.448 501.825 381.748 501.825 379.651C501.825 377.555 500.102 375.855 497.977 375.855L145.728 375.855C143.603 375.855 141.88 377.555 141.88 379.651C141.88 381.748 143.603 383.448 145.728 383.448Z" fill="#0F0F0F"/>
<path d="M141.415 379.652C141.416 378.523 141.871 377.44 142.68 376.641C143.49 375.843 144.587 375.393 145.732 375.393H497.979C499.125 375.393 500.223 375.841 501.033 376.64C501.842 377.439 502.297 378.522 502.297 379.652C502.297 380.782 501.842 381.865 501.033 382.664C500.223 383.463 499.125 383.912 497.979 383.912H145.73C144.585 383.91 143.488 383.461 142.679 382.662C141.87 381.864 141.416 380.781 141.415 379.652ZM145.732 376.319C144.836 376.319 143.977 376.67 143.343 377.295C142.71 377.92 142.354 378.768 142.354 379.652C142.354 380.536 142.71 381.384 143.343 382.009C143.977 382.634 144.836 382.985 145.732 382.985H497.979C498.875 382.985 499.735 382.634 500.368 382.009C501.002 381.384 501.358 380.536 501.358 379.652C501.358 378.768 501.002 377.92 500.368 377.295C499.735 376.67 498.875 376.319 497.979 376.319H145.732Z" fill="#292A2E"/>
<path d="M117.623 385.427C114.945 385.427 112.306 384.788 109.932 383.566C107.557 382.343 105.518 380.573 103.986 378.405C102.455 376.237 101.477 373.737 101.135 371.116C100.794 368.495 101.1 365.832 102.026 363.353C102.966 360.836 127.086 299.415 131.285 288.739L160.309 305.401C157.948 311.403 149.395 334.155 142.523 352.483L153.939 351.259L157.533 381.244L119.42 385.332C118.823 385.395 118.223 385.427 117.623 385.427Z" fill="#11AD8E"/>
<path d="M212.563 275.968C212.461 275.954 209.668 286.324 187.869 284.71C172.778 283.595 169.098 273.462 168.752 273.462C170.379 273.12 173.021 272.767 173.744 272.385C176.121 271.126 177.852 269.593 178.722 266.302C179.404 263.729 179.751 253.821 179.751 248.852L202.973 253.999C202.65 259.605 200.384 272.604 208.324 274.905C209.644 275.286 211.067 275.635 212.563 275.968Z" fill="#EAB099"/>
<path d="M202.171 265.022C193.016 265.735 181.256 261.922 179.023 249.872L177.007 239C174.773 226.951 179.378 216.026 190.878 213.951C202.378 211.876 212.784 220.093 215.017 232.142L215.909 236.956C216.767 241.579 218.505 263.75 202.171 265.022Z" fill="#EAB099"/>
<path d="M158.839 275.129C150.612 275.732 142.224 276.612 136.171 282.139C128.88 288.797 127.559 296.984 132.21 319.514C136.212 338.9 134.624 347.371 137.301 383.143C137.38 384.197 137.549 386.377 137.549 386.377L230.803 386.226C230.803 386.226 233.799 338.772 238.352 316.882C241.814 300.24 250.908 280.038 212.566 275.966C212.463 275.955 181.71 273.455 158.839 275.129Z" fill="#11AD8E"/>
<path d="M312.61 296.848L301.542 304.604L302.51 303.036C302.812 302.524 302.906 301.918 302.772 301.341C302.639 300.763 302.288 300.257 301.79 299.925C301.528 299.762 301.234 299.654 300.928 299.607C300.622 299.56 300.309 299.575 300.008 299.651C299.708 299.727 299.426 299.863 299.181 300.05C298.936 300.237 298.731 300.471 298.581 300.739L290.952 314.19C289.988 315.888 289.736 317.89 290.248 319.77C290.76 321.649 291.996 323.256 293.693 324.248C295.663 325.401 297.936 325.947 300.222 325.816C302.509 325.686 304.703 324.885 306.525 323.516L314.765 317.299C315.2 316.985 315.511 316.531 315.645 316.016C315.78 315.501 315.73 314.956 315.504 314.473C315.291 314.042 314.944 313.689 314.513 313.466C314.082 313.243 313.59 313.162 313.109 313.234C313.109 313.197 313.098 313.161 313.078 313.129C313.058 313.101 313.032 313.078 313.001 313.063C312.97 313.047 312.935 313.039 312.901 313.04L314.426 311.893C314.888 311.561 315.213 311.075 315.34 310.525C315.468 309.975 315.389 309.399 315.119 308.901C314.836 308.418 314.381 308.055 313.842 307.884C313.303 307.712 312.719 307.745 312.203 307.975C312.206 307.951 312.205 307.927 312.199 307.903L312.824 307.434C313.238 307.108 313.534 306.66 313.67 306.155C313.805 305.65 313.772 305.116 313.576 304.631C313.32 304.098 312.863 303.685 312.303 303.48C311.742 303.276 311.123 303.296 310.577 303.536L310.555 303.499L315.204 300.24C315.443 300.073 315.644 299.859 315.796 299.613C315.949 299.367 316.048 299.092 316.089 298.806C316.13 298.521 316.112 298.23 316.035 297.951C315.958 297.673 315.825 297.413 315.643 297.187C315.275 296.761 314.757 296.49 314.194 296.427C313.631 296.364 313.065 296.514 312.61 296.848Z" fill="#EAB099"/>
<path opacity="0.2" d="M310.603 303.791C310.589 303.811 310.571 303.829 310.55 303.843L305.995 306.956C305.972 306.973 305.945 306.986 305.917 306.992C305.889 306.999 305.86 307 305.832 306.995C305.804 306.991 305.776 306.981 305.752 306.965C305.728 306.95 305.707 306.93 305.69 306.907C305.674 306.884 305.662 306.857 305.657 306.829C305.651 306.802 305.651 306.773 305.656 306.745C305.662 306.717 305.673 306.691 305.689 306.667C305.706 306.644 305.726 306.624 305.751 306.608L310.306 303.495C310.348 303.467 310.398 303.453 310.448 303.458C310.498 303.462 310.546 303.484 310.581 303.52C310.617 303.555 310.638 303.602 310.642 303.651C310.646 303.701 310.632 303.751 310.603 303.791Z" fill="#0C0C0C"/>
<path opacity="0.2" d="M312.173 308.068C312.159 308.088 312.142 308.105 312.122 308.118L308.562 310.593C308.539 310.611 308.513 310.623 308.485 310.63C308.457 310.637 308.428 310.639 308.399 310.634C308.371 310.63 308.343 310.62 308.319 310.605C308.294 310.59 308.273 310.571 308.256 310.547C308.24 310.524 308.228 310.498 308.222 310.47C308.216 310.442 308.215 310.413 308.221 310.385C308.226 310.357 308.237 310.331 308.253 310.307C308.27 310.284 308.29 310.263 308.314 310.248L311.875 307.773C311.916 307.744 311.966 307.731 312.017 307.735C312.067 307.74 312.114 307.762 312.15 307.797C312.185 307.832 312.207 307.878 312.212 307.928C312.216 307.978 312.202 308.027 312.173 308.068Z" fill="#0C0C0C"/>
<path opacity="0.2" d="M313.073 313.369C313.058 313.39 313.039 313.408 313.017 313.422L311.308 314.552C311.285 314.568 311.259 314.578 311.231 314.584C311.204 314.589 311.175 314.589 311.148 314.584C311.12 314.579 311.094 314.568 311.07 314.552C311.047 314.537 311.027 314.517 311.011 314.494C310.995 314.471 310.985 314.445 310.979 314.418C310.974 314.391 310.973 314.363 310.979 314.336C310.984 314.308 310.995 314.282 311.011 314.259C311.026 314.236 311.046 314.216 311.07 314.201L312.779 313.071C312.821 313.044 312.871 313.032 312.92 313.037C312.97 313.042 313.016 313.064 313.051 313.1C313.086 313.135 313.107 313.181 313.111 313.23C313.115 313.279 313.102 313.328 313.073 313.369Z" fill="#0C0C0C"/>
<path d="M246.182 381.891C239.776 381.09 234.411 377.65 232.424 371.59L209.326 301.117L240.963 291.025L254.522 338.295L287.501 306.435L309.403 328.52L262.317 375.274C259.251 380.084 251.224 382.522 246.182 381.891Z" fill="#11AD8E"/>
<path d="M137.548 386.596C137.491 386.596 137.436 386.574 137.395 386.535C137.353 386.496 137.329 386.442 137.327 386.386L134.569 315.764C134.567 315.706 134.588 315.649 134.628 315.607C134.668 315.565 134.723 315.539 134.782 315.537C134.811 315.535 134.841 315.538 134.869 315.548C134.897 315.557 134.922 315.572 134.944 315.592C134.966 315.612 134.983 315.636 134.995 315.662C135.006 315.689 135.012 315.718 135.012 315.747L137.77 386.369C137.772 386.427 137.751 386.483 137.711 386.526C137.671 386.568 137.616 386.593 137.557 386.596L137.548 386.596Z" fill="#0C0C0C"/>
<path d="M215.345 276.583C215.213 288.096 206.473 293.238 188.514 294.438C170.555 295.638 150.741 289.05 153.597 273.317C156.49 257.393 160.735 252.533 161.75 236.447C161.792 235.706 161.834 234.937 161.867 234.145C162.614 215.895 175.999 208.64 182.616 207.746C190.398 206.69 196.259 207.806 198.551 208.686C201.989 209.73 205.145 211.523 207.786 213.933C210.426 216.343 212.483 219.308 213.804 222.609C213.925 222.921 213.953 223.26 213.885 223.588C213.817 223.915 213.655 224.216 213.42 224.456C213.184 224.696 212.884 224.865 212.554 224.942C212.225 225.019 211.88 225.002 211.56 224.893C210.873 224.646 210.208 224.342 209.573 223.985C210.075 225.889 210.658 230.299 208.441 234.145C208.414 238.438 208.796 242.723 209.582 246.946C209.878 248.706 210.235 250.596 210.653 252.672C213.809 268.309 215.49 263.681 215.345 276.583Z" fill="#0A0A0A"/>
<path d="M210.659 247.132C207.164 247.763 203.647 244.584 203.008 241.138C202.369 237.691 203.962 234.145 208.436 234.145L210.659 247.132Z" fill="#EAB099"/>
<path d="M257.351 348.222C257.302 348.222 257.254 348.206 257.215 348.176C257.176 348.147 257.148 348.105 257.136 348.058L254.521 338.119C254.512 338.091 254.509 338.061 254.512 338.032C254.516 338.003 254.525 337.974 254.539 337.948C254.554 337.923 254.574 337.9 254.598 337.882C254.621 337.864 254.648 337.851 254.677 337.843C254.706 337.836 254.737 337.834 254.766 337.839C254.796 337.843 254.824 337.854 254.85 337.869C254.875 337.885 254.897 337.905 254.915 337.929C254.932 337.953 254.944 337.981 254.95 338.009L257.566 347.949C257.58 348.005 257.572 348.064 257.542 348.114C257.512 348.164 257.463 348.2 257.406 348.215C257.388 348.22 257.369 348.222 257.351 348.222Z" fill="#0C0C0C"/>
<path d="M199.598 547.474L197.654 577.649L239.427 577.845C239.427 577.845 241.556 570.271 231.766 567.038C226.323 565.24 222.77 559.197 223.88 551.742L199.598 547.474Z" fill="#383838"/>
<path opacity="0.17" d="M199.598 547.474L197.654 577.649L239.427 577.845C239.427 577.845 241.556 570.271 231.766 567.038C226.323 565.24 222.77 559.197 223.88 551.742L199.598 547.474Z" fill="#070707"/>
<path d="M255.96 547.474L254.016 577.649L295.789 577.845C295.789 577.845 297.918 570.271 288.128 567.038C282.685 565.24 279.132 559.197 280.242 551.742L255.96 547.474Z" fill="#383838"/>
<path d="M239.533 406.154L232.202 560.775L194.652 559.53L197.861 404.773L239.533 406.154Z" fill="#292A2E"/>
<path opacity="0.52" d="M239.533 406.154L232.202 560.775L194.652 559.53L197.861 404.773L239.533 406.154Z" fill="#0F0F0F"/>
<path d="M248.658 559.887L286.203 558.503L282.934 410.218C282.953 409.861 282.967 409.502 282.97 409.141C282.976 408.33 282.938 407.519 282.856 406.712L282.852 406.519H282.833C282.224 400.99 279.569 395.877 275.376 392.158C271.183 388.44 265.748 386.377 260.11 386.366L170.555 386.196V386.134H137.553C137.553 386.134 134.151 408.455 139.613 420.779C146.431 436.165 172.106 432.01 172.106 432.01L172.091 431.557H241.362L248.658 559.887Z" fill="#292A2E"/>
<path opacity="0.64" d="M248.658 559.887L286.203 558.503L282.934 410.218C282.953 409.861 282.967 409.502 282.97 409.141C282.976 408.33 282.938 407.519 282.856 406.712L282.852 406.519H282.833C282.224 400.99 279.569 395.877 275.376 392.158C271.183 388.44 265.748 386.377 260.11 386.366L170.555 386.196V386.134H137.553C137.553 386.134 134.151 408.455 139.613 420.779C146.431 436.165 172.106 432.01 172.106 432.01L172.091 431.557H241.362L248.658 559.887Z" fill="#0F0F0F"/>
<path d="M296.378 577.983L297.3 577.808L278.188 436.488L277.266 436.663L296.378 577.983Z" fill="#494949"/>
<path d="M238.004 577.983L238.926 577.808L224.511 436.488L223.588 436.663L238.004 577.983Z" fill="#494949"/>
<path d="M218.892 374.352H127.197C125.697 374.352 124.249 373.814 123.123 372.838C121.996 371.862 121.268 370.515 121.075 369.048L115.009 323.098C114.896 322.239 114.97 321.366 115.226 320.538C115.481 319.709 115.913 318.944 116.493 318.293C117.072 317.642 117.786 317.121 118.585 316.764C119.385 316.406 120.253 316.222 121.131 316.222H212.827C214.326 316.221 215.775 316.759 216.902 317.735C218.028 318.711 218.757 320.059 218.95 321.526L225.016 367.476C225.129 368.335 225.055 369.208 224.799 370.036C224.543 370.865 224.111 371.63 223.532 372.281C222.952 372.932 222.238 373.453 221.438 373.81C220.638 374.167 219.77 374.352 218.892 374.352Z" fill="#0F0F0F"/>
<path d="M218.895 374.815H127.2C125.587 374.812 124.031 374.231 122.819 373.182C121.608 372.132 120.823 370.685 120.611 369.108L114.547 323.158C114.425 322.234 114.505 321.295 114.78 320.403C115.055 319.511 115.52 318.688 116.143 317.988C116.767 317.287 117.534 316.726 118.395 316.342C119.256 315.957 120.19 315.758 121.134 315.758H212.83C214.442 315.762 215.998 316.342 217.21 317.392C218.421 318.441 219.205 319.889 219.417 321.466L225.482 367.416C225.604 368.34 225.525 369.279 225.25 370.171C224.975 371.062 224.51 371.886 223.887 372.586C223.263 373.286 222.495 373.848 221.635 374.232C220.774 374.616 219.84 374.815 218.895 374.815ZM121.134 316.685C120.323 316.685 119.521 316.856 118.782 317.186C118.043 317.516 117.384 317.998 116.849 318.599C116.314 319.2 115.915 319.907 115.678 320.673C115.442 321.439 115.374 322.245 115.479 323.039L121.544 368.989C121.726 370.342 122.399 371.585 123.439 372.486C124.479 373.387 125.816 373.885 127.2 373.888H218.895C219.706 373.888 220.508 373.718 221.247 373.388C221.986 373.058 222.646 372.576 223.181 371.975C223.716 371.373 224.115 370.666 224.352 369.901C224.588 369.135 224.656 368.329 224.551 367.535L218.484 321.585C218.302 320.231 217.629 318.989 216.589 318.088C215.548 317.186 214.212 316.688 212.828 316.685H121.134Z" fill="#292A2E"/>
<path d="M279.121 432.018H184.573C182.023 432.018 179.955 434.058 179.955 436.575V436.575C179.955 439.092 182.023 441.132 184.573 441.132H279.121C281.672 441.132 283.74 439.092 283.74 436.575V436.575C283.74 434.058 281.672 432.018 279.121 432.018Z" fill="#0F0F0F"/>
<path d="M279.122 441.595H184.574C183.225 441.595 181.931 441.066 180.976 440.125C180.022 439.183 179.486 437.906 179.486 436.575C179.486 435.244 180.022 433.967 180.976 433.025C181.931 432.084 183.225 431.555 184.574 431.555H279.122C280.471 431.555 281.765 432.084 282.72 433.025C283.674 433.967 284.21 435.244 284.21 436.575C284.21 437.906 283.674 439.183 282.72 440.125C281.765 441.066 280.471 441.595 279.122 441.595ZM184.574 432.483C184.029 432.483 183.49 432.589 182.987 432.795C182.483 433 182.026 433.302 181.64 433.682C181.255 434.062 180.949 434.513 180.741 435.01C180.532 435.507 180.425 436.039 180.425 436.576C180.425 437.114 180.532 437.646 180.741 438.143C180.949 438.639 181.255 439.091 181.64 439.471C182.026 439.851 182.483 440.152 182.987 440.358C183.49 440.564 184.029 440.67 184.574 440.67H279.122C279.666 440.67 280.206 440.564 280.709 440.358C281.213 440.152 281.67 439.851 282.055 439.471C282.441 439.091 282.746 438.639 282.955 438.143C283.163 437.646 283.271 437.114 283.271 436.576C283.271 436.039 283.163 435.507 282.955 435.01C282.746 434.513 282.441 434.062 282.055 433.682C281.67 433.302 281.213 433 280.709 432.795C280.206 432.589 279.666 432.483 279.122 432.483H184.574Z" fill="#292A2E"/>
<path d="M119.354 577.983L118.431 577.808L132.847 436.488L133.77 436.663L119.354 577.983Z" fill="#494949"/>
<path d="M173.031 577.983L172.109 577.808L186.525 436.488L187.447 436.663L173.031 577.983Z" fill="#494949"/>
<path d="M218.887 374.292L217.956 374.415L226.377 436.638L227.308 436.515L218.887 374.292Z" fill="#494949"/>
<path d="M122.222 374.291L121.291 374.414L129.713 436.637L130.644 436.514L122.222 374.291Z" fill="#494949"/>
<path d="M227.23 432.018H132.683C130.132 432.018 128.064 434.058 128.064 436.575V436.575C128.064 439.092 130.132 441.132 132.683 441.132H227.23C229.781 441.132 231.849 439.092 231.849 436.575V436.575C231.849 434.058 229.781 432.018 227.23 432.018Z" fill="#292A2E"/>
<path opacity="0.8" d="M227.23 432.018H132.683C130.132 432.018 128.064 434.058 128.064 436.575V436.575C128.064 439.092 130.132 441.132 132.683 441.132H227.23C229.781 441.132 231.849 439.092 231.849 436.575V436.575C231.849 434.058 229.781 432.018 227.23 432.018Z" fill="#0F0F0F"/>
<path d="M227.228 441.595H132.679C131.329 441.595 130.035 441.066 129.081 440.125C128.126 439.183 127.59 437.906 127.59 436.575C127.59 435.244 128.126 433.967 129.081 433.025C130.035 432.084 131.329 431.555 132.679 431.555H227.226C228.576 431.555 229.87 432.084 230.825 433.025C231.779 433.967 232.315 435.244 232.315 436.575C232.315 437.906 231.779 439.183 230.825 440.125C229.87 441.066 228.576 441.595 227.226 441.595H227.228ZM132.679 432.483C131.578 432.483 130.523 432.914 129.745 433.682C128.967 434.45 128.53 435.491 128.53 436.576C128.53 437.662 128.967 438.703 129.745 439.471C130.523 440.238 131.578 440.67 132.679 440.67H227.226C228.327 440.67 229.382 440.238 230.16 439.471C230.939 438.703 231.376 437.662 231.376 436.576C231.376 435.491 230.939 434.45 230.16 433.682C229.382 432.914 228.327 432.483 227.226 432.483H132.679Z" fill="#292A2E"/>
<path d="M213.71 374.352H122.014C120.515 374.352 119.067 373.814 117.94 372.838C116.814 371.862 116.086 370.515 115.893 369.048L109.827 323.098C109.714 322.239 109.788 321.366 110.043 320.538C110.299 319.709 110.731 318.944 111.31 318.293C111.89 317.642 112.603 317.121 113.403 316.763C114.203 316.406 115.071 316.222 115.949 316.222H207.645C209.144 316.222 210.592 316.76 211.718 317.736C212.844 318.712 213.572 320.059 213.766 321.525L219.831 367.475C219.945 368.334 219.871 369.207 219.615 370.036C219.36 370.864 218.928 371.629 218.348 372.28C217.769 372.931 217.055 373.453 216.255 373.81C215.455 374.167 214.588 374.352 213.71 374.352Z" fill="#292A2E"/>
<path opacity="0.8" d="M213.71 374.352H122.014C120.515 374.352 119.067 373.814 117.94 372.838C116.814 371.862 116.086 370.515 115.893 369.048L109.827 323.098C109.714 322.239 109.788 321.366 110.043 320.538C110.299 319.709 110.731 318.944 111.31 318.293C111.89 317.642 112.603 317.121 113.403 316.763C114.203 316.406 115.071 316.222 115.949 316.222H207.645C209.144 316.222 210.592 316.76 211.718 317.736C212.844 318.712 213.572 320.059 213.766 321.525L219.831 367.475C219.945 368.334 219.871 369.207 219.615 370.036C219.36 370.864 218.928 371.629 218.348 372.28C217.769 372.931 217.055 373.453 216.255 373.81C215.455 374.167 214.588 374.352 213.71 374.352Z" fill="#0F0F0F"/>
<path d="M213.708 374.815H122.012C120.4 374.811 118.844 374.231 117.633 373.181C116.421 372.132 115.637 370.684 115.425 369.108L109.36 323.158C109.238 322.234 109.317 321.295 109.592 320.403C109.868 319.511 110.332 318.688 110.956 317.988C111.579 317.287 112.347 316.726 113.208 316.342C114.068 315.957 115.002 315.758 115.947 315.758H207.642C209.255 315.762 210.811 316.342 212.022 317.392C213.234 318.441 214.018 319.889 214.23 321.466L220.295 367.416C220.417 368.34 220.338 369.279 220.063 370.171C219.787 371.062 219.323 371.886 218.699 372.586C218.076 373.286 217.308 373.847 216.447 374.232C215.587 374.616 214.653 374.815 213.708 374.815ZM115.947 316.685C115.136 316.685 114.334 316.856 113.595 317.186C112.856 317.516 112.197 317.997 111.662 318.599C111.126 319.2 110.727 319.907 110.491 320.673C110.255 321.438 110.187 322.245 110.292 323.038L116.356 368.989C116.538 370.342 117.212 371.585 118.252 372.486C119.292 373.387 120.628 373.885 122.012 373.888H213.708C214.519 373.888 215.321 373.718 216.06 373.388C216.799 373.058 217.458 372.576 217.993 371.975C218.529 371.373 218.928 370.666 219.164 369.901C219.4 369.135 219.468 368.329 219.364 367.535L213.298 321.585C213.117 320.231 212.443 318.989 211.403 318.087C210.363 317.186 209.027 316.688 207.642 316.685H115.947Z" fill="#292A2E"/>
<path d="M400.501 329.003C401.498 329.003 402.307 328.205 402.307 327.221C402.307 326.237 401.498 325.439 400.501 325.439C399.503 325.439 398.695 326.237 398.695 327.221C398.695 328.205 399.503 329.003 400.501 329.003Z" fill="#0F0F0F"/>
<path d="M522.995 370.826L514.776 325.963C514.516 325.174 514.01 324.487 513.33 324C512.65 323.513 511.831 323.251 510.99 323.251H450.717C450.089 323.251 449.47 323.397 448.91 323.679C448.35 323.96 447.865 324.369 447.496 324.87C447.127 325.372 446.883 325.953 446.785 326.565C446.687 327.177 446.738 327.804 446.932 328.393L455.151 373.257C455.411 374.045 455.917 374.732 456.597 375.22C457.277 375.707 458.096 375.969 458.936 375.969H519.209C519.838 375.969 520.457 375.822 521.017 375.541C521.577 375.259 522.062 374.851 522.431 374.349C522.8 373.848 523.044 373.267 523.142 372.655C523.24 372.042 523.189 371.416 522.995 370.826Z" fill="#0F0F0F"/>
<path d="M519.208 376.431H458.935C457.995 376.433 457.079 376.14 456.318 375.596C455.558 375.051 454.992 374.282 454.703 373.4L454.688 373.338L446.474 328.505C446.262 327.847 446.211 327.149 446.324 326.468C446.437 325.787 446.711 325.142 447.124 324.585C447.537 324.028 448.078 323.575 448.702 323.262C449.326 322.95 450.016 322.787 450.715 322.787H510.989C511.929 322.786 512.845 323.078 513.605 323.623C514.366 324.168 514.931 324.937 515.22 325.819L515.236 325.88L523.45 370.714C523.662 371.372 523.713 372.069 523.6 372.751C523.487 373.432 523.212 374.077 522.799 374.634C522.386 375.191 521.845 375.644 521.222 375.956C520.598 376.268 519.908 376.431 519.208 376.431ZM455.606 373.142C455.838 373.831 456.285 374.43 456.883 374.855C457.48 375.279 458.198 375.506 458.934 375.505H519.208C519.763 375.505 520.309 375.375 520.803 375.127C521.296 374.879 521.723 374.519 522.049 374.077C522.375 373.634 522.59 373.122 522.676 372.582C522.762 372.042 522.718 371.49 522.547 370.97L522.531 370.909L514.318 326.077C514.085 325.388 513.638 324.789 513.04 324.365C512.443 323.941 511.725 323.713 510.989 323.714H450.716C450.162 323.714 449.616 323.844 449.122 324.092C448.628 324.34 448.201 324.7 447.876 325.143C447.55 325.585 447.335 326.097 447.249 326.637C447.162 327.177 447.207 327.73 447.378 328.25L447.394 328.31L455.606 373.142Z" fill="#292A2E"/>
<path d="M520.834 373.317L512.24 327.325C512.103 326.912 511.838 326.552 511.481 326.296C511.124 326.041 510.695 325.903 510.254 325.903H451.967C451.638 325.903 451.313 325.98 451.019 326.128C450.726 326.275 450.472 326.489 450.278 326.752C450.084 327.015 449.957 327.32 449.905 327.641C449.854 327.962 449.88 328.29 449.982 328.599L458.154 373.317H520.834Z" fill="#0F0F0F"/>
<path d="M521.398 373.779H457.762L449.526 328.711C449.407 328.333 449.38 327.933 449.446 327.543C449.513 327.153 449.671 326.784 449.909 326.466C450.146 326.147 450.457 325.888 450.815 325.71C451.172 325.532 451.568 325.439 451.969 325.439H510.255C510.796 325.438 511.322 325.606 511.759 325.919C512.196 326.232 512.521 326.674 512.688 327.181L512.703 327.24L521.398 373.779ZM458.548 372.853H520.271L511.787 327.441C511.678 327.126 511.472 326.854 511.198 326.661C510.923 326.468 510.595 326.365 510.258 326.365H451.968C451.712 326.365 451.46 326.425 451.233 326.539C451.005 326.654 450.808 326.82 450.658 327.024C450.508 327.228 450.409 327.464 450.369 327.713C450.329 327.961 450.35 328.216 450.429 328.456L450.445 328.517L458.548 372.853Z" fill="#292A2E"/>
<path d="M486.348 347.175C486.348 345.327 485.766 343.525 484.684 342.016C483.602 340.507 482.072 339.367 480.306 338.752L482.79 332.775C486.207 334.045 489.064 336.458 490.863 339.592C492.662 342.726 493.29 346.384 492.636 349.928C491.982 353.472 490.088 356.677 487.285 358.986C484.482 361.294 480.946 362.558 477.295 362.559V356.107C479.696 356.107 481.999 355.165 483.697 353.491C485.394 351.816 486.348 349.544 486.348 347.175Z" fill="#292A2E"/>
<path d="M461.697 347.176H468.237C468.237 349.545 469.191 351.816 470.889 353.491C472.587 355.166 474.89 356.107 477.291 356.107V362.56C473.155 362.559 469.189 360.938 466.264 358.054C463.34 355.169 461.697 351.256 461.697 347.176Z" fill="#00CCA3"/>
<path opacity="0.5" d="M461.697 347.175C461.697 343.69 462.897 340.307 465.099 337.582C467.302 334.857 470.377 332.95 473.822 332.173L474.93 338.551C473.008 339.063 471.311 340.186 470.101 341.744C468.891 343.303 468.235 345.212 468.235 347.175H461.697Z" fill="#00CCA3"/>
<path opacity="0.2" d="M473.824 332.173C476.807 331.507 479.923 331.716 482.788 332.776L480.304 338.752C478.574 338.154 476.702 338.084 474.932 338.551L473.824 332.173Z" fill="#00CCA3"/>
<path d="M551.248 372.215H457.439C456.421 372.215 455.595 373.029 455.595 374.034C455.595 375.038 456.421 375.853 457.439 375.853H551.248C552.266 375.853 553.091 375.038 553.091 374.034C553.091 373.029 552.266 372.215 551.248 372.215Z" fill="#0F0F0F"/>
<path d="M551.249 376.317H457.44C456.827 376.317 456.238 376.076 455.805 375.648C455.371 375.22 455.127 374.64 455.127 374.034C455.127 373.429 455.371 372.849 455.805 372.421C456.238 371.993 456.827 371.752 457.44 371.752H551.249C551.863 371.752 552.451 371.993 552.885 372.421C553.319 372.849 553.563 373.429 553.563 374.034C553.563 374.64 553.319 375.22 552.885 375.648C552.451 376.076 551.863 376.317 551.249 376.317ZM457.44 372.679C457.076 372.679 456.726 372.822 456.469 373.076C456.211 373.33 456.066 373.675 456.066 374.034C456.066 374.394 456.211 374.739 456.469 374.993C456.726 375.247 457.076 375.39 457.44 375.39H551.249C551.614 375.39 551.963 375.247 552.221 374.993C552.479 374.739 552.623 374.394 552.623 374.034C552.623 373.675 552.479 373.33 552.221 373.076C551.963 372.822 551.614 372.679 551.249 372.679H457.44Z" fill="#292A2E"/>
<path d="M528.019 278.136C528.121 278.123 529.249 296.589 550.994 294.979C566.048 293.867 571.415 278.11 571.76 278.11C570.137 277.77 567.404 277.276 566.683 276.896C564.312 275.639 560.936 274.332 560.172 269.79C559.732 267.173 560.479 253.783 560.249 251.135L537.585 256.223C537.908 261.816 540.168 274.782 532.247 277.076C530.928 277.456 529.509 277.805 528.019 278.136Z" fill="#EAB099"/>
<path d="M538.224 264.946C547.35 265.641 559.065 261.821 561.27 249.808L563.26 238.967C565.468 226.953 560.858 216.072 549.392 214.024C537.927 211.975 527.569 220.182 525.363 232.195L524.482 236.994C524.209 238.647 524.05 240.316 524.007 241.99C523.859 246.414 523.652 253.143 525.871 258.086C527.966 262.754 532.394 264.502 538.224 264.946Z" fill="#EAB099"/>
<path d="M558.687 213.41C555.064 212.296 551.307 211.666 547.514 211.536C547.146 210.108 546.328 208.998 545.123 208.534C543.119 207.762 540.669 209.006 539.04 211.404C538.134 210.034 536.907 208.8 535.279 208.3C530.791 206.921 530.568 213.282 530.568 213.282C530.568 213.282 523.451 206.354 523.229 215.191C522.96 225.882 524.951 229.017 526.404 229.809C529.273 231.372 531.41 231.106 532.545 233.407C535.984 240.371 532.614 259.987 536.593 262.443C542.688 266.206 555.174 266.335 559.229 266.05C560.788 265.939 562.248 264.156 562.905 262.756C565.026 258.237 569.756 247.993 571.072 243.756C573.503 235.936 573.32 218.124 558.687 213.41Z" fill="#0C0C0C"/>
<path d="M533.869 255.434C537.391 255.057 539.833 251.036 539.452 247.563C539.071 244.09 536.005 242.481 532.485 242.858L530.927 245.379L530.842 255.757L533.869 255.434Z" fill="#EAB099"/>
<path d="M592.675 383.698L592.784 383.704C592.784 383.704 592.706 381.632 592.675 383.698Z" fill="#333333"/>
<path d="M496.755 318.994C497.442 326.959 500.785 376.654 501.446 386.465H592.516C593.033 377.616 595.34 338.922 597.292 321.618C599.154 305.106 602.808 296.838 600.129 291.957C595.753 283.979 583.794 279.368 575.64 278.279C570.662 277.614 569.635 277.137 567.606 277.137H532.541C529.206 277.137 507.914 280.307 503.55 283.472C491.468 292.235 495.296 302.114 496.755 318.994Z" fill="#00AA88"/>
<path d="M611.964 385.945C614.642 385.945 617.281 385.307 619.656 384.084C622.031 382.861 624.071 381.091 625.603 378.923C627.135 376.755 628.113 374.254 628.454 371.633C628.795 369.011 628.489 366.348 627.562 363.869C626.622 361.351 604.564 303.732 600.365 293.055L569.272 305.483C571.633 311.486 580.187 334.239 587.06 352.569L575.643 351.345L572.049 383.957L610.164 385.849C610.762 385.913 611.362 385.945 611.964 385.945Z" fill="#00AA88"/>
<path d="M594.22 321.953L591.982 386.457L592.587 386.477L594.825 321.974L594.22 321.953Z" fill="#0C0C0C"/>
<path d="M483.585 385.945C480.906 385.945 478.267 385.306 475.892 384.083C473.518 382.861 471.477 381.09 469.946 378.922C468.414 376.754 467.436 374.253 467.095 371.632C466.754 369.011 467.06 366.348 467.987 363.868C468.926 361.351 491.909 303.478 496.107 292.801L526.276 305.483C523.915 311.486 515.36 334.239 508.488 352.569L519.906 351.345L523.499 383.957L485.383 385.849C484.786 385.913 484.186 385.945 483.585 385.945Z" fill="#00AA88"/>
<path d="M508.42 348.744C508.386 348.744 508.352 348.739 508.319 348.729C508.278 348.716 508.239 348.695 508.206 348.667C508.172 348.639 508.145 348.605 508.125 348.567C508.105 348.529 508.093 348.487 508.089 348.444C508.085 348.401 508.09 348.358 508.103 348.317L516.175 323.249C516.202 323.166 516.261 323.097 516.339 323.057C516.417 323.017 516.508 323.009 516.593 323.035C516.677 323.062 516.747 323.12 516.787 323.197C516.828 323.274 516.836 323.364 516.809 323.447L508.737 348.515C508.715 348.582 508.673 348.64 508.616 348.681C508.559 348.722 508.49 348.744 508.42 348.744Z" fill="#0C0C0C"/>
<path d="M483.841 547.474L485.785 577.649L444.013 577.845C444.013 577.845 441.884 570.271 451.674 567.038C457.117 565.24 460.67 559.197 459.559 551.741L483.841 547.474Z" fill="#383838"/>
<path opacity="0.17" d="M483.841 547.474L485.785 577.649L444.013 577.845C444.013 577.845 441.884 570.271 451.674 567.038C457.117 565.24 460.67 559.197 459.559 551.741L483.841 547.474Z" fill="#070707"/>
<path d="M528.964 547.474L536.636 570.244L507.478 577.767L490.974 577.845C490.974 577.845 488.846 570.271 498.635 567.038C504.078 565.24 505.792 559.197 504.682 551.741L528.964 547.474Z" fill="#383838"/>
<g opacity="0.75">
<path d="M531.852 410.748L488.165 564.914L451.856 555.39L491.556 400.179L531.852 410.748Z" fill="#0F0F0F"/>
</g>
<path d="M531.852 410.748L488.165 564.914L451.856 555.39L491.556 400.179L531.852 410.748Z" fill="#383838"/>
<g opacity="0.52">
<path d="M531.852 410.748L488.165 564.914L451.856 555.39L491.556 400.179L531.852 410.748Z" fill="#0F0F0F"/>
</g>
<path d="M470.291 386.364C467.271 386.37 464.283 386.964 461.497 388.113C458.711 389.263 456.183 390.944 454.058 393.061C451.934 395.178 450.254 397.688 449.117 400.447C447.979 403.207 447.406 406.161 447.43 409.139C447.456 412.79 448.381 416.38 450.128 419.598L501.48 564.981L537.172 553.409L498.989 431.557H569.119C575.252 431.556 581.139 429.178 585.51 424.934C589.881 420.689 592.385 414.92 592.482 408.871L592.848 386.133L470.291 386.364Z" fill="#383838"/>
<path opacity="0.64" d="M470.291 386.364C467.271 386.37 464.283 386.964 461.497 388.113C458.711 389.263 456.183 390.944 454.058 393.061C451.934 395.178 450.254 397.688 449.117 400.447C447.979 403.207 447.406 406.161 447.43 409.139C447.456 412.79 448.381 416.38 450.128 419.598L501.48 564.981L537.172 553.409L498.989 431.557H569.119C575.252 431.556 581.139 429.178 585.51 424.934C589.881 420.689 592.385 414.92 592.482 408.871L592.848 386.133L470.291 386.364Z" fill="#0F0F0F"/>
<path d="M430.845 577.983L429.922 577.808L449.035 436.488L449.957 436.663L430.845 577.983Z" fill="#494949"/>
<path d="M489.22 577.983L488.297 577.808L502.713 436.488L503.635 436.663L489.22 577.983Z" fill="#494949"/>
<path d="M508.331 374.352H600.027C601.526 374.352 602.974 373.814 604.101 372.838C605.227 371.862 605.955 370.515 606.149 369.048L612.214 323.099C612.327 322.24 612.254 321.367 611.998 320.538C611.742 319.71 611.31 318.945 610.731 318.294C610.151 317.643 609.438 317.122 608.638 316.764C607.838 316.407 606.97 316.222 606.092 316.222H514.397C512.898 316.222 511.45 316.761 510.323 317.736C509.197 318.712 508.469 320.059 508.275 321.526L502.21 367.476C502.097 368.335 502.17 369.208 502.426 370.036C502.682 370.865 503.114 371.63 503.693 372.281C504.272 372.932 504.986 373.453 505.786 373.81C506.586 374.167 507.453 374.352 508.331 374.352Z" fill="#0F0F0F"/>
<path d="M503.337 372.586C502.713 371.886 502.248 371.062 501.973 370.171C501.698 369.279 501.618 368.34 501.74 367.416L507.805 321.466C508.017 319.889 508.801 318.442 510.013 317.392C511.224 316.342 512.78 315.762 514.392 315.758H606.088C607.033 315.758 607.967 315.957 608.827 316.342C609.688 316.726 610.456 317.287 611.079 317.988C611.703 318.688 612.167 319.511 612.443 320.403C612.718 321.295 612.797 322.234 612.675 323.158L606.61 369.108C606.398 370.684 605.614 372.132 604.403 373.181C603.191 374.231 601.635 374.811 600.023 374.815H508.328C507.383 374.815 506.449 374.616 505.589 374.232C504.728 373.847 503.96 373.286 503.337 372.586ZM514.393 316.685C513.009 316.688 511.673 317.186 510.633 318.088C509.593 318.989 508.919 320.231 508.738 321.585L502.672 367.535C502.567 368.329 502.636 369.135 502.872 369.901C503.108 370.666 503.507 371.373 504.043 371.975C504.578 372.576 505.237 373.058 505.976 373.388C506.715 373.718 507.517 373.888 508.328 373.888H600.024C601.408 373.885 602.744 373.387 603.784 372.486C604.824 371.585 605.498 370.342 605.679 368.989L611.745 323.039C611.85 322.245 611.781 321.439 611.545 320.673C611.309 319.907 610.91 319.2 610.374 318.599C609.839 317.998 609.18 317.516 608.441 317.186C607.702 316.856 606.9 316.685 606.089 316.685H514.393Z" fill="#292A2E"/>
<path d="M448.104 441.131H542.652C545.203 441.131 547.271 439.091 547.271 436.575V436.574C547.271 434.058 545.203 432.018 542.652 432.018H448.104C445.554 432.018 443.486 434.058 443.486 436.574V436.575C443.486 439.091 445.554 441.131 448.104 441.131Z" fill="#0F0F0F"/>
<path d="M443.018 436.575C443.02 435.245 443.557 433.969 444.51 433.029C445.464 432.088 446.757 431.558 448.106 431.557H542.653C543.321 431.557 543.983 431.686 544.6 431.939C545.218 432.191 545.778 432.561 546.251 433.027C546.723 433.493 547.098 434.046 547.354 434.655C547.61 435.264 547.741 435.917 547.741 436.576C547.741 437.236 547.61 437.888 547.354 438.497C547.098 439.107 546.723 439.66 546.251 440.126C545.778 440.592 545.218 440.962 544.6 441.214C543.983 441.466 543.321 441.596 542.653 441.596H448.106C446.757 441.594 445.463 441.065 444.509 440.123C443.556 439.182 443.019 437.906 443.018 436.575ZM448.107 432.482C447.007 432.482 445.951 432.913 445.173 433.681C444.395 434.448 443.958 435.489 443.958 436.575C443.958 437.661 444.395 438.702 445.173 439.469C445.951 440.237 447.007 440.668 448.107 440.668H542.653C543.753 440.668 544.809 440.237 545.587 439.469C546.365 438.702 546.802 437.661 546.802 436.575C546.802 435.489 546.365 434.448 545.587 433.681C544.809 432.913 543.753 432.482 542.653 432.482H448.107Z" fill="#292A2E"/>
<path d="M607.87 577.983L608.792 577.808L594.376 436.488L593.454 436.663L607.87 577.983Z" fill="#494949"/>
<path d="M554.192 577.983L555.114 577.808L540.699 436.488L539.776 436.663L554.192 577.983Z" fill="#494949"/>
<path d="M508.33 374.288L499.909 436.511L500.84 436.634L509.261 374.411L508.33 374.288Z" fill="#494949"/>
<path d="M604.992 374.288L596.571 436.511L597.502 436.634L605.923 374.411L604.992 374.288Z" fill="#494949"/>
<path d="M499.995 441.132H594.543C597.094 441.132 599.162 439.092 599.162 436.575V436.575C599.162 434.058 597.094 432.018 594.543 432.018H499.995C497.444 432.018 495.376 434.058 495.376 436.575V436.575C495.376 439.092 497.444 441.132 499.995 441.132Z" fill="#292A2E"/>
<path opacity="0.8" d="M499.995 441.132H594.543C597.094 441.132 599.162 439.092 599.162 436.575V436.575C599.162 434.058 597.094 432.018 594.543 432.018H499.995C497.444 432.018 495.376 434.058 495.376 436.575V436.575C495.376 439.092 497.444 441.132 499.995 441.132Z" fill="#0F0F0F"/>
<path d="M494.904 436.575C494.905 435.244 495.442 433.969 496.396 433.028C497.35 432.087 498.643 431.558 499.992 431.557H594.54C595.889 431.557 597.184 432.085 598.138 433.027C599.092 433.968 599.628 435.245 599.628 436.576C599.628 437.908 599.092 439.185 598.138 440.126C597.184 441.067 595.889 441.596 594.54 441.596H499.992C498.643 441.595 497.349 441.065 496.395 440.124C495.441 439.183 494.905 437.906 494.904 436.575ZM499.992 432.482C498.892 432.482 497.836 432.913 497.058 433.681C496.28 434.448 495.843 435.489 495.843 436.575C495.843 437.661 496.28 438.702 497.058 439.469C497.836 440.237 498.892 440.668 499.992 440.668H594.54C595.64 440.668 596.696 440.237 597.474 439.469C598.252 438.702 598.689 437.661 598.689 436.575C598.689 435.489 598.252 434.448 597.474 433.681C596.696 432.913 595.64 432.482 594.54 432.482H499.992Z" fill="#292A2E"/>
<path d="M513.515 374.352H605.21C606.71 374.352 608.158 373.814 609.284 372.838C610.411 371.862 611.139 370.515 611.333 369.048L617.398 323.098C617.511 322.24 617.437 321.367 617.182 320.538C616.926 319.71 616.494 318.944 615.915 318.293C615.335 317.643 614.622 317.121 613.822 316.764C613.022 316.407 612.154 316.222 611.276 316.222H519.58C518.081 316.222 516.634 316.761 515.508 317.737C514.381 318.713 513.654 320.059 513.46 321.526L507.395 367.476C507.281 368.334 507.355 369.207 507.611 370.036C507.866 370.864 508.298 371.629 508.877 372.28C509.457 372.931 510.17 373.452 510.97 373.809C511.769 374.167 512.637 374.352 513.515 374.352Z" fill="#292A2E"/>
<path opacity="0.8" d="M513.515 374.352H605.21C606.71 374.352 608.158 373.814 609.284 372.838C610.411 371.862 611.139 370.515 611.333 369.048L617.398 323.098C617.511 322.24 617.437 321.367 617.182 320.538C616.926 319.71 616.494 318.944 615.915 318.293C615.335 317.643 614.622 317.121 613.822 316.764C613.022 316.407 612.154 316.222 611.276 316.222H519.58C518.081 316.222 516.634 316.761 515.508 317.737C514.381 318.713 513.654 320.059 513.46 321.526L507.395 367.476C507.281 368.334 507.355 369.207 507.611 370.036C507.866 370.864 508.298 371.629 508.877 372.28C509.457 372.931 510.17 373.452 510.97 373.809C511.769 374.167 512.637 374.352 513.515 374.352Z" fill="#0F0F0F"/>
<path d="M508.524 372.586C507.901 371.886 507.436 371.062 507.16 370.171C506.885 369.279 506.805 368.34 506.927 367.416L512.993 321.466C513.205 319.889 513.989 318.441 515.2 317.392C516.412 316.342 517.968 315.762 519.58 315.758H611.276C612.22 315.758 613.154 315.957 614.015 316.342C614.876 316.726 615.643 317.287 616.267 317.988C616.89 318.688 617.355 319.511 617.63 320.403C617.906 321.295 617.985 322.234 617.863 323.158L611.797 369.108C611.586 370.684 610.802 372.132 609.59 373.181C608.379 374.231 606.823 374.811 605.21 374.815H513.515C512.571 374.815 511.637 374.616 510.776 374.232C509.915 373.847 509.147 373.286 508.524 372.586ZM519.581 316.685C518.196 316.688 516.86 317.186 515.82 318.087C514.78 318.989 514.107 320.231 513.925 321.585L507.859 367.535C507.755 368.329 507.823 369.135 508.059 369.901C508.295 370.666 508.694 371.373 509.23 371.975C509.765 372.576 510.424 373.058 511.163 373.388C511.902 373.718 512.704 373.888 513.515 373.888H605.211C606.595 373.885 607.931 373.387 608.971 372.486C610.011 371.585 610.685 370.342 610.867 368.989L616.932 323.038C617.036 322.245 616.968 321.438 616.732 320.673C616.496 319.907 616.097 319.2 615.562 318.599C615.026 317.997 614.367 317.516 613.628 317.186C612.889 316.856 612.087 316.685 611.276 316.685H519.581Z" fill="#292A2E"/>
</svg>
