<svg width="36" height="37" viewBox="0 0 36 37" fill="none" xmlns="http://www.w3.org/2000/svg">
<g clip-path="url(#clip0_23_416)">
<path d="M17.1628 18.9186C22.249 18.9186 26.3721 14.7955 26.3721 9.7093C26.3721 4.62315 22.249 0.5 17.1628 0.5C12.0766 0.5 7.95349 4.62315 7.95349 9.7093C7.95349 14.7955 12.0766 18.9186 17.1628 18.9186Z" fill="#00CCA3"/>
<path fill-rule="evenodd" clip-rule="evenodd" d="M27.2092 21.7549C23.9172 21.7549 21.2449 24.4273 21.2449 27.7192C21.2449 31.0111 23.9172 33.6851 27.2092 33.6851C30.5011 33.6851 33.1751 31.0111 33.1751 27.7192C33.1751 24.4273 30.5011 21.7549 27.2092 21.7549ZM27.2092 24.2665C29.1146 24.2665 30.6635 25.8137 30.6635 27.7192C30.6635 29.6247 29.1146 31.1735 27.2092 31.1735C25.3037 31.1735 23.7548 29.6247 23.7548 27.7192C23.7548 25.8137 25.3037 24.2665 27.2092 24.2665Z" fill="#00CCA3"/>
<path fill-rule="evenodd" clip-rule="evenodd" d="M28.4651 23.0093V20.1845C28.4651 19.4913 27.9025 18.9287 27.2093 18.9287C26.5161 18.9287 25.9535 19.4913 25.9535 20.1845V23.0109C25.9535 23.7025 26.5161 24.2668 27.2093 24.2668C27.9025 24.2651 28.4651 23.7025 28.4651 23.0093Z" fill="#00CCA3"/>
<path fill-rule="evenodd" clip-rule="evenodd" d="M31.4271 25.2778L33.4246 23.2786C33.9153 22.7896 33.9153 21.9926 33.4246 21.5037C32.9357 21.0131 32.1387 21.0131 31.6498 21.5037L29.6505 23.5013C29.1616 23.9919 29.1616 24.7872 29.6505 25.2778C30.1411 25.7668 30.9365 25.7668 31.4271 25.2778Z" fill="#00CCA3"/>
<path fill-rule="evenodd" clip-rule="evenodd" d="M31.9177 28.9755H34.7441C35.4373 28.9755 36 28.4129 36 27.7197C36 27.0265 35.4373 26.4639 34.7441 26.4639H31.9177C31.2262 26.4639 30.6636 27.0265 30.6636 27.7197C30.6619 28.4129 31.2262 28.9755 31.9177 28.9755Z" fill="#00CCA3"/>
<path fill-rule="evenodd" clip-rule="evenodd" d="M29.6505 31.9372L31.6498 33.9348C32.1387 34.4254 32.9357 34.4254 33.4246 33.9348C33.9153 33.4459 33.9153 32.6488 33.4246 32.1599L31.4271 30.1606C30.9365 29.6717 30.1411 29.6717 29.6505 30.1606C29.1616 30.6512 29.1616 31.4466 29.6505 31.9372Z" fill="#00CCA3"/>
<path fill-rule="evenodd" clip-rule="evenodd" d="M25.9535 32.4277V35.2541C25.9535 35.9473 26.5161 36.5099 27.2093 36.5099C27.9025 36.5099 28.4651 35.9473 28.4651 35.2541V32.4277C28.4651 31.7362 27.9025 31.1735 27.2093 31.1719C26.5161 31.1719 25.9535 31.7362 25.9535 32.4277Z" fill="#00CCA3"/>
<path fill-rule="evenodd" clip-rule="evenodd" d="M22.9913 30.1606L20.9937 32.1599C20.5031 32.6488 20.5031 33.4459 20.9937 33.9348C21.4826 34.4254 22.2796 34.4254 22.7686 33.9348L24.7678 31.9372C25.2568 31.4466 25.2568 30.6512 24.7678 30.1606C24.2772 29.6717 23.4819 29.6717 22.9913 30.1606Z" fill="#00CCA3"/>
<path fill-rule="evenodd" clip-rule="evenodd" d="M22.4991 26.4639H19.6744C18.9812 26.4639 18.4186 27.0265 18.4186 27.7197C18.4186 28.4129 18.9812 28.9755 19.6744 28.9755H22.4991C23.1923 28.9755 23.7566 28.4129 23.755 27.7197C23.755 27.0265 23.1923 26.4639 22.4991 26.4639Z" fill="#00CCA3"/>
<path fill-rule="evenodd" clip-rule="evenodd" d="M24.7678 23.5013L22.7686 21.5037C22.2796 21.0131 21.4826 21.0131 20.9937 21.5037C20.5031 21.9926 20.5031 22.7896 20.9937 23.2786L22.9913 25.2778C23.4819 25.7668 24.2772 25.7668 24.7678 25.2778C25.2568 24.7872 25.2568 23.9919 24.7678 23.5013Z" fill="#00CCA3"/>
<path fill-rule="evenodd" clip-rule="evenodd" d="M19.5673 34.846C18.6731 33.6974 18.7535 32.0313 19.81 30.9764L20.1349 30.6499H19.6744C18.0569 30.6499 16.7442 29.3372 16.7442 27.7197C16.7442 26.1022 18.0569 24.7895 19.6744 24.7895H20.1349L19.81 24.463C18.7116 23.3662 18.6681 21.6097 19.6794 20.4594C18.859 20.3958 18.0184 20.3623 17.1628 20.3623C11.6004 20.3623 6.67591 21.7537 3.61842 23.8384C1.28595 25.4291 0 27.4501 0 29.5716V31.9995C0 32.7547 0.299721 33.4797 0.833861 34.0122C1.368 34.5463 2.09135 34.846 2.84651 34.846H19.5673Z" fill="#00CCA3"/>
</g>
<defs>
<clipPath id="clip0_23_416">
<rect width="36" height="36" fill="white" transform="translate(0 0.5)"/>
</clipPath>
</defs>
</svg>
