<svg width="17" height="22" viewBox="0 0 17 22" fill="none" xmlns="http://www.w3.org/2000/svg">
<path d="M8.25 0.663818C6.06276 0.666398 3.96584 1.53642 2.41923 3.08304C0.872609 4.62966 0.00258878 6.72658 8.77945e-06 8.91382C-0.00261122 10.7012 0.581239 12.4401 1.66201 13.8638C1.66201 13.8638 1.88701 14.1601 1.92376 14.2028L8.25 21.6638L14.5793 14.1991C14.6123 14.1593 14.838 13.8638 14.838 13.8638L14.8388 13.8616C15.919 12.4385 16.5026 10.7004 16.5 8.91382C16.4974 6.72658 15.6274 4.62966 14.0808 3.08304C12.5342 1.53642 10.4373 0.666398 8.25 0.663818ZM8.25 11.9138C7.6567 11.9138 7.0766 11.7379 6.5833 11.4082C6.08995 11.0786 5.70543 10.61 5.47837 10.0619C5.25131 9.51372 5.1919 8.91049 5.30765 8.32855C5.42341 7.74661 5.70913 7.21206 6.12869 6.7925C6.5482 6.37294 7.0828 6.08722 7.6647 5.97146C8.2467 5.85571 8.8499 5.91512 9.3981 6.14218C9.9462 6.36924 10.4148 6.75376 10.7444 7.24711C11.0741 7.74046 11.25 8.32048 11.25 8.91382C11.249 9.70912 10.9326 10.4716 10.3702 11.034C9.8078 11.5964 9.0454 11.9128 8.25 11.9138Z" fill="white"/>
</svg>
