<svg width="19" height="20" viewBox="0 0 19 20" fill="none" xmlns="http://www.w3.org/2000/svg">
<path d="M17 9.28782H19C19 4.15782 15.127 0.288818 9.98999 0.288818V2.28882C14.052 2.28882 17 5.23182 17 9.28782Z" fill="white"/>
<path d="M10.0003 6.28906C12.1033 6.28906 13.0003 7.18606 13.0003 9.28902H15.0003C15.0003 6.06406 13.2253 4.28906 10.0003 4.28906V6.28906ZM13.4223 11.732C13.2301 11.5574 12.9776 11.4642 12.7181 11.4723C12.4585 11.4803 12.2123 11.5889 12.0313 11.775L9.6383 14.236C9.0623 14.126 7.9043 13.765 6.71228 12.576C5.52028 11.383 5.15928 10.222 5.05228 9.65002L7.5113 7.25606C7.6977 7.07519 7.8064 6.82888 7.8144 6.56927C7.8225 6.30965 7.7292 6.0571 7.5543 5.86506L3.85928 1.80206C3.68432 1.60942 3.44116 1.49256 3.18143 1.47632C2.92171 1.46007 2.66588 1.54572 2.46828 1.71506L0.298282 3.57606C0.125392 3.74957 0.022202 3.98051 0.00828195 4.22506C-0.00671805 4.47506 -0.292718 10.397 4.29928 14.991C8.3053 18.996 13.3233 19.289 14.7053 19.289C14.9073 19.289 15.0313 19.283 15.0643 19.281C15.3088 19.2674 15.5396 19.1637 15.7123 18.99L17.5723 16.819C17.7417 16.6216 17.8276 16.3658 17.8115 16.1061C17.7954 15.8464 17.6788 15.6031 17.4863 15.428L13.4223 11.732Z" fill="white"/>
</svg>
