<svg width="222" height="23" viewBox="0 0 222 23" fill="none" xmlns="http://www.w3.org/2000/svg">
<g id="Group 2">
<ellipse id="Ellipse 4" cx="56.7407" cy="11" rx="2.89747" ry="2.9011" fill="#00CCA3"/>
<ellipse id="Ellipse 5" cx="172.277" cy="11" rx="2.89747" ry="2.9011" fill="#00CCA3"/>
<g id="Ghost Group">
<path d="M11.347 22.0303C9.8781 22.0303 8.50985 21.7432 7.24221 21.169C5.98462 20.5948 4.88298 19.8041 3.93728 18.7967C3.00164 17.7793 2.27224 16.6058 1.74909 15.2761C1.22593 13.9465 0.964355 12.5312 0.964355 11.0303C0.964355 9.41854 1.25108 7.94784 1.82454 6.61817C2.398 5.2885 3.1777 4.14015 4.16365 3.17312C5.14959 2.19601 6.26632 1.44555 7.51384 0.921743C8.77143 0.387861 10.0793 0.120919 11.4375 0.120919C12.9265 0.120919 14.3853 0.468447 15.8139 1.1635C17.2425 1.85856 18.5202 2.96158 19.647 4.47257L15.9346 6.46707C15.2907 5.72165 14.5714 5.16762 13.7766 4.80499C12.9919 4.44235 12.1921 4.26103 11.3771 4.26103C10.5622 4.26103 9.77749 4.42724 9.02294 4.75965C8.27845 5.09207 7.61445 5.56552 7.03093 6.17999C6.44742 6.79445 5.98462 7.51973 5.64256 8.35581C5.3005 9.19189 5.12947 10.1136 5.12947 11.1209C5.12947 12.0577 5.29044 12.9341 5.61238 13.75C5.94438 14.566 6.39711 15.2812 6.97057 15.8956C7.54403 16.5101 8.20803 16.9936 8.96258 17.3462C9.72719 17.6887 10.5421 17.8599 11.4073 17.8599C11.9405 17.8599 12.4637 17.7844 12.9768 17.6333C13.4999 17.4721 13.9979 17.2404 14.4708 16.9382C14.9436 16.636 15.3763 16.2583 15.7686 15.805C16.171 15.3517 16.5232 14.8279 16.825 14.2336H13.5502V10.6072H21.7296C21.7899 12.1685 21.5636 13.6392 21.0505 15.0193C20.5374 16.3993 19.8029 17.6182 18.8472 18.6759C17.8914 19.7235 16.7747 20.5445 15.497 21.1388C14.2193 21.7331 12.8359 22.0303 11.347 22.0303Z" fill="#00CCA3"/>
<path d="M37.8116 0.483556H41.9767V21.6374H37.8116V12.3902H29.7832V21.6374H25.6181V0.483556H29.7832V8.21982H37.8116V0.483556Z" fill="#00CCA3"/>
<path d="M56.6183 22.0303C55.1897 22.0303 53.8466 21.7482 52.589 21.1841C51.3314 20.6099 50.2247 19.8192 49.269 18.8119C48.3132 17.8045 47.5637 16.6411 47.0204 15.3215C46.4771 13.9918 46.2055 12.5715 46.2055 11.0605C46.2055 9.54949 46.4771 8.1342 47.0204 6.8146C47.5637 5.48493 48.3132 4.31643 49.269 3.30911C50.2247 2.30178 51.3314 1.51607 52.589 0.951963C53.8466 0.377787 55.1897 0.0906982 56.6183 0.0906982C58.0569 0.0906982 59.4051 0.377787 60.6627 0.951963C61.9202 1.51607 63.0269 2.30178 63.9827 3.30911C64.9384 4.31643 65.6829 5.48493 66.2161 6.8146C66.7594 8.1342 67.0311 9.54949 67.0311 11.0605C67.0311 12.5715 66.7594 13.9918 66.2161 15.3215C65.6829 16.6411 64.9384 17.8045 63.9827 18.8119C63.0269 19.8192 61.9202 20.6099 60.6627 21.1841C59.4051 21.7482 58.0569 22.0303 56.6183 22.0303ZM56.6183 17.8599C57.4734 17.8599 58.2783 17.6837 59.0328 17.3311C59.7874 16.9684 60.4514 16.4749 61.0248 15.8503C61.5983 15.2258 62.046 14.5055 62.3679 13.6896C62.6999 12.8737 62.8659 11.9973 62.8659 11.0605C62.8659 10.1237 62.6999 9.24729 62.3679 8.43136C62.046 7.60535 61.5983 6.88511 61.0248 6.27064C60.4514 5.6461 59.7874 5.15755 59.0328 4.80499C58.2783 4.44235 57.4734 4.26103 56.6183 4.26103C55.7631 4.26103 54.9583 4.44235 54.2037 4.80499C53.4492 5.15755 52.7852 5.6461 52.2117 6.27064C51.6382 6.89519 51.1855 7.61543 50.8535 8.43136C50.5316 9.24729 50.3706 10.1237 50.3706 11.0605C50.3706 11.9973 50.5316 12.8787 50.8535 13.7047C51.1855 14.5206 51.6382 15.2409 52.2117 15.8654C52.7852 16.4799 53.4492 16.9684 54.2037 17.3311C54.9583 17.6837 55.7631 17.8599 56.6183 17.8599Z" fill="#00CCA3"/>
<path d="M78.9532 22.0303C77.766 22.0303 76.6292 21.8439 75.5426 21.4712C74.4661 21.0985 73.5204 20.5596 72.7055 19.8544C71.9007 19.1493 71.3222 18.3132 70.97 17.3462L74.8786 15.8956C74.9993 16.2381 75.2508 16.5605 75.6332 16.8627C76.0155 17.1548 76.4933 17.3966 77.0668 17.588C77.6403 17.7693 78.2691 17.8599 78.9532 17.8599C79.6071 17.8599 80.2208 17.7642 80.7943 17.5728C81.3778 17.3714 81.8456 17.0944 82.1977 16.7418C82.5599 16.3892 82.741 15.9762 82.741 15.5028C82.741 15.0293 82.5549 14.6365 82.1826 14.3242C81.8104 14.0119 81.3325 13.7652 80.749 13.5838C80.1655 13.3924 79.5669 13.2464 78.9532 13.1456C77.434 12.924 76.0708 12.5664 74.8635 12.0728C73.6663 11.5692 72.7206 10.8792 72.0264 10.0028C71.3322 9.11634 70.9851 7.99317 70.9851 6.63328C70.9851 5.32376 71.3523 4.18044 72.0868 3.20334C72.8313 2.22623 73.8071 1.4657 75.0144 0.921743C76.2318 0.377787 77.5447 0.105809 78.9532 0.105809C80.1202 0.105809 81.247 0.292165 82.3335 0.664876C83.4201 1.03759 84.3658 1.57651 85.1707 2.28163C85.9856 2.98676 86.5691 3.83292 86.9212 4.8201L83.0126 6.24042C82.8919 5.89793 82.6404 5.58063 82.2581 5.2885C81.8758 4.99638 81.3979 4.75966 80.8245 4.57834C80.251 4.39702 79.6272 4.30636 78.9532 4.30636C78.3093 4.29629 77.6956 4.39198 77.1121 4.59345C76.5386 4.79491 76.0658 5.07193 75.6935 5.42449C75.3313 5.77705 75.1502 6.17999 75.1502 6.63328C75.1502 7.22761 75.3213 7.67586 75.6633 7.97806C76.0155 8.28026 76.4782 8.49684 77.0517 8.62779C77.6252 8.75874 78.259 8.87458 78.9532 8.97532C80.3818 9.18685 81.6997 9.5646 82.907 10.1086C84.1143 10.6424 85.0801 11.3576 85.8045 12.2542C86.5389 13.1406 86.9061 14.2235 86.9061 15.5028C86.9061 16.8123 86.5389 17.9556 85.8045 18.9327C85.0701 19.9098 84.0992 20.6704 82.8919 21.2143C81.6846 21.7583 80.3717 22.0303 78.9532 22.0303Z" fill="#00CCA3"/>
<path d="M106.838 0.483556V4.65389H100.621V21.6374H96.4557V4.65389H90.2382V0.483556H106.838Z" fill="#00CCA3"/>
<path d="M129.297 22.0303C127.828 22.0303 126.46 21.7432 125.192 21.169C123.935 20.5948 122.833 19.8041 121.888 18.7967C120.952 17.7793 120.222 16.6058 119.699 15.2761C119.176 13.9465 118.915 12.5312 118.915 11.0303C118.915 9.41854 119.201 7.94784 119.775 6.61817C120.348 5.2885 121.128 4.14015 122.114 3.17312C123.1 2.19601 124.217 1.44555 125.464 0.921743C126.722 0.387861 128.03 0.120919 129.388 0.120919C130.877 0.120919 132.335 0.468447 133.764 1.1635C135.193 1.85856 136.47 2.96158 137.597 4.47257L133.885 6.46707C133.241 5.72165 132.522 5.16762 131.727 4.80499C130.942 4.44235 130.142 4.26103 129.327 4.26103C128.512 4.26103 127.728 4.42724 126.973 4.75965C126.229 5.09207 125.565 5.56552 124.981 6.17999C124.398 6.79445 123.935 7.51973 123.593 8.35581C123.251 9.19189 123.08 10.1136 123.08 11.1209C123.08 12.0577 123.241 12.9341 123.563 13.75C123.895 14.566 124.347 15.2812 124.921 15.8956C125.494 16.5101 126.158 16.9936 126.913 17.3462C127.677 17.6887 128.492 17.8599 129.358 17.8599C129.891 17.8599 130.414 17.7844 130.927 17.6333C131.45 17.4721 131.948 17.2404 132.421 16.9382C132.894 16.636 133.326 16.2583 133.719 15.805C134.121 15.3517 134.473 14.8279 134.775 14.2336H131.5V10.6072H139.68C139.74 12.1685 139.514 13.6392 139.001 15.0193C138.488 16.3993 137.753 17.6182 136.797 18.6759C135.842 19.7235 134.725 20.5445 133.447 21.1388C132.169 21.7331 130.786 22.0303 129.297 22.0303Z" fill="#00CCA3"/>
<path d="M143.568 21.6374V0.483556H151.959C153.106 0.483556 154.142 0.775681 155.068 1.35993C156.003 1.93411 156.743 2.70975 157.286 3.68685C157.839 4.65389 158.116 5.72669 158.116 6.90526C158.116 7.832 157.955 8.69326 157.633 9.48905C157.311 10.2748 156.858 10.9648 156.275 11.5591C155.691 12.1534 155.012 12.6168 154.238 12.9492L159.263 21.6374H154.464L149.65 13.327H147.733V21.6374H143.568ZM147.733 9.15663H151.461C151.914 9.15663 152.326 9.04583 152.698 8.82422C153.081 8.59253 153.382 8.2853 153.604 7.90251C153.835 7.50966 153.951 7.07651 153.951 6.60306C153.951 6.13969 153.835 5.71662 153.604 5.33383C153.382 4.94097 153.081 4.6287 152.698 4.39702C152.326 4.16533 151.914 4.04949 151.461 4.04949H147.733V9.15663Z" fill="#00CCA3"/>
<path d="M172.24 22.0303C170.811 22.0303 169.468 21.7482 168.211 21.1841C166.953 20.6099 165.846 19.8192 164.891 18.8119C163.935 17.8045 163.185 16.6411 162.642 15.3215C162.099 13.9918 161.827 12.5715 161.827 11.0605C161.827 9.54949 162.099 8.1342 162.642 6.8146C163.185 5.48493 163.935 4.31643 164.891 3.30911C165.846 2.30178 166.953 1.51607 168.211 0.951963C169.468 0.377787 170.811 0.0906982 172.24 0.0906982C173.679 0.0906982 175.027 0.377787 176.284 0.951963C177.542 1.51607 178.649 2.30178 179.604 3.30911C180.56 4.31643 181.305 5.48493 181.838 6.8146C182.381 8.1342 182.653 9.54949 182.653 11.0605C182.653 12.5715 182.381 13.9918 181.838 15.3215C181.305 16.6411 180.56 17.8045 179.604 18.8119C178.649 19.8192 177.542 20.6099 176.284 21.1841C175.027 21.7482 173.679 22.0303 172.24 22.0303ZM172.24 17.8599C173.095 17.8599 173.9 17.6837 174.655 17.3311C175.409 16.9684 176.073 16.4749 176.647 15.8503C177.22 15.2258 177.668 14.5055 177.99 13.6896C178.322 12.8737 178.488 11.9973 178.488 11.0605C178.488 10.1237 178.322 9.24729 177.99 8.43136C177.668 7.60535 177.22 6.88511 176.647 6.27064C176.073 5.6461 175.409 5.15755 174.655 4.80499C173.9 4.44235 173.095 4.26103 172.24 4.26103C171.385 4.26103 170.58 4.44235 169.825 4.80499C169.071 5.15755 168.407 5.6461 167.833 6.27064C167.26 6.89519 166.807 7.61543 166.475 8.43136C166.153 9.24729 165.992 10.1237 165.992 11.0605C165.992 11.9973 166.153 12.8787 166.475 13.7047C166.807 14.5206 167.26 15.2409 167.833 15.8654C168.407 16.4799 169.071 16.9684 169.825 17.3311C170.58 17.6837 171.385 17.8599 172.24 17.8599Z" fill="#00CCA3"/>
<path d="M195.111 22.0303C193.421 22.0303 191.932 21.6173 190.644 20.7913C189.366 19.9652 188.365 18.8572 187.641 17.4671C186.927 16.0669 186.569 14.5156 186.569 12.8132V0.483556H190.734V12.8132C190.734 13.7299 190.906 14.571 191.248 15.3366C191.59 16.1021 192.088 16.7166 192.742 17.18C193.396 17.6333 194.185 17.8599 195.111 17.8599C196.047 17.8599 196.836 17.6333 197.48 17.18C198.134 16.7267 198.627 16.1173 198.959 15.3517C199.291 14.5861 199.457 13.74 199.457 12.8132V0.483556H203.622V12.8132C203.622 14.0925 203.416 15.2913 203.003 16.4094C202.601 17.5174 202.023 18.4945 201.268 19.3407C200.513 20.1869 199.613 20.8467 198.567 21.3201C197.53 21.7935 196.379 22.0303 195.111 22.0303Z" fill="#00CCA3"/>
<path d="M208.026 21.6374V0.483556H215.813C216.97 0.483556 218.011 0.775681 218.936 1.35993C219.872 1.94418 220.617 2.72486 221.17 3.70196C221.723 4.669 222 5.73676 222 6.90526C222 8.09391 221.718 9.17678 221.155 10.1539C220.591 11.1209 219.837 11.8915 218.891 12.4657C217.956 13.0399 216.929 13.327 215.813 13.327H212.191V21.6374H208.026ZM212.191 9.15663H215.345C215.808 9.15663 216.225 9.04583 216.597 8.82422C216.97 8.59253 217.266 8.2853 217.488 7.90251C217.719 7.50966 217.835 7.07651 217.835 6.60306C217.835 6.13969 217.719 5.71662 217.488 5.33383C217.266 4.94097 216.97 4.6287 216.597 4.39702C216.225 4.16533 215.808 4.04949 215.345 4.04949H212.191V9.15663Z" fill="#00CCA3"/>
</g>
</g>
</svg>
