<svg width="40" height="40" viewBox="0 0 40 40" fill="none" xmlns="http://www.w3.org/2000/svg">
<g id="icon&#38;button" filter="url(#filter0_i_23_159)">
<g id="Group 6">
<path id="Vector" d="M27.4 27.3997V22.1257C27.4 19.5337 26.842 17.5537 23.818 17.5537C22.36 17.5537 21.388 18.3457 20.992 19.1017H20.956V17.7877H18.094V27.3997H21.082V22.6297C21.082 21.3697 21.316 20.1637 22.864 20.1637C24.394 20.1637 24.412 21.5857 24.412 22.7017V27.3817H27.4V27.3997Z" fill="white"/>
<path id="Vector_2" d="M13.234 17.7881H16.222V27.4001H13.234V17.7881Z" fill="white"/>
<path id="Vector_3" d="M14.728 13C13.774 13 13 13.774 13 14.728C13 15.682 13.774 16.474 14.728 16.474C15.682 16.474 16.456 15.682 16.456 14.728C16.456 13.774 15.682 13 14.728 13Z" fill="white"/>
</g>
<rect x="0.5" y="0.5" width="39" height="39" rx="19.5" stroke="#00CCA3"/>
</g>
<defs>
<filter id="filter0_i_23_159" x="0" y="0" width="40" height="44" filterUnits="userSpaceOnUse" color-interpolation-filters="sRGB">
<feFlood flood-opacity="0" result="BackgroundImageFix"/>
<feBlend mode="normal" in="SourceGraphic" in2="BackgroundImageFix" result="shape"/>
<feColorMatrix in="SourceAlpha" type="matrix" values="0 0 0 0 0 0 0 0 0 0 0 0 0 0 0 0 0 0 127 0" result="hardAlpha"/>
<feOffset dy="4"/>
<feGaussianBlur stdDeviation="8"/>
<feComposite in2="hardAlpha" operator="arithmetic" k2="-1" k3="1"/>
<feColorMatrix type="matrix" values="0 0 0 0 0 0 0 0 0 0.825 0 0 0 0 0.659191 0 0 0 0.25 0"/>
<feBlend mode="normal" in2="shape" result="effect1_innerShadow_23_159"/>
</filter>
</defs>
</svg>
